# Utah Teapot Model
# Version: 2025 - Cem Yuksel
# Triangle Mesh Resolution: 3 (1166 faces)
o Utah Teapot

v -2.333333 0 2.233333
v -2.297805 -0.2 2.17716
v -2.231824 -0.2 2.072839
v -2.196296 0 2.016667
v -2.833333 0 2.116667
v -2.765157 -0.2 2.075617
v -2.638546 -0.2 1.999383
v -2.57037 0 1.958333
v -3 0 1.8
v -2.922222 -0.2 1.8
v -2.777778 -0.2 1.8
v -2.7 0 1.8
v -1.601241 0 2.247975
v -1.57293 -0.2 2.190783
v -1.651077 -0.2 2.082105
v -1.75243 0 2.022889
v -1.554646 0 2.281461
v -1.527606 -0.2334089 2.204449
v -1.605122 -0.2335945 2.036191
v -1.704119 0 1.957219
v -2.297805 0.2 2.17716
v -2.231824 0.2 2.072839
v -2.765157 0.2 2.075617
v -2.638546 0.2 1.999383
v -2.922222 0.2 1.8
v -2.777778 0.2 1.8
v -1.57293 0.2 2.190783
v -1.651077 0.2 2.082105
v -1.527606 0.2334089 2.204449
v -1.605122 0.2335945 2.036191
v -2.881481 0 1.363889
v -2.816186 -0.2 1.403498
v -2.694924 -0.2 1.477057
v -2.629629 0 1.516667
v -2.518518 0 0.9611111
v -2.488751 -0.2 1.018724
v -2.43347 -0.2 1.12572
v -2.403704 0 1.183333
v -2.064704 0 0.9454114
v -2.026376 -0.137988 0.876407
v -1.982618 -0.2 0.8278666
v -1.868155 -0.2 0.6427816
v -1.902599 0 0.6015172
v -1.986786 0 0.9842393
v -1.957514 -0.1585598 0.9
v -1.920766 -0.229734 0.8484837
v -1.844758 -0.2305965 0.6276478
v -1.882233 0 0.5570836
v -2.816186 0.2 1.403498
v -2.694924 0.2 1.477057
v -2.488751 0.2 1.018724
v -2.43347 0.2 1.12572
v -2.026376 0.137988 0.876407
v -1.982618 0.2 0.8278666
v -1.868155 0.2 0.6427816
v -1.957514 0.1585598 0.9
v -1.920766 0.229734 0.8484837
v -1.844758 0.2305965 0.6276478
v 2.8 0 2.4
v 2.903703 -0.1 2.4
v 3.096296 -0.1 2.4
v 3.2 0 2.4
v 2.84074 0 2.45
v 2.982373 -0.1172839 2.455401
v 3.245404 -0.1172839 2.465432
v 3.387037 0 2.470833
v 2.792593 0 2.45
v 2.95775 -0.1493827 2.454321
v 3.264472 -0.1493827 2.462346
v 3.42963 0 2.466667
v 2.7 0 2.4
v 2.855555 -0.1666667 2.4
v 3.144444 -0.1666667 2.4
v 3.3 0 2.4
v 2.903703 0.1 2.4
v 3.096296 0.1 2.4
v 2.982373 0.1172839 2.455401
v 3.245404 0.1172839 2.465432
v 2.95775 0.1493827 2.454321
v 3.264472 0.1493827 2.462346
v 2.855555 0.1666667 2.4
v 3.144444 0.1666667 2.4
v 2.462963 0 2.013889
v 2.549382 -0.2375308 1.962757
v 2.709877 -0.2375308 1.867798
v 2.796296 0 1.816666
v 2.27037 0 1.611111
v 2.339506 -0.3691358 1.47428
v 2.467901 -0.3691358 1.220165
v 2.537037 0 1.083333
v 1.933213 0 1.501097
v 1.8967 -0.3093813 1.343035
v 1.871152 -0.4210345 1.281543
v 1.915805 -0.4200849 0.9280652
v 1.944597 -0.3298832 0.9010049
v 1.988129 0 0.7663755
v 1.867966 8.165138e-8 1.530453
v 1.83456 -0.3409829 1.372222
v 1.811414 -0.4618053 1.313393
v 1.868586 -0.4726543 0.9303887
v 1.899485 -0.3751274 0.9
v 1.947223 0 0.7585833
v 2.549382 0.2375308 1.962757
v 2.709877 0.2375308 1.867798
v 2.339506 0.3691358 1.47428
v 2.467901 0.3691358 1.220165
v 1.8967 0.3093813 1.343035
v 1.871152 0.4210345 1.281543
v 1.915805 0.4200849 0.9280652
v 1.944597 0.3298832 0.9010049
v 1.83456 0.3409829 1.372222
v 1.811414 0.4618053 1.313393
v 1.868586 0.4726543 0.9303887
v 1.899485 0.3751274 0.9
v 0 0 3.15
v -0.3629629 0 3.066666
v -0.3143351 -0.1814815 3.066666
v -0.1814814 -0.3143352 3.066666
v 1.586561e-8 -0.3629629 3.066666
v -0.237037 0 2.883333
v -0.2052801 -0.1185185 2.883333
v -0.1185185 -0.2052801 2.883333
v 1.036122e-8 -0.237037 2.883333
v -0.2 0 2.7
v -0.1732051 -0.1 2.7
v -0.09999999 -0.1732051 2.7
v 8.742278e-9 -0.2 2.7
v 0.1814815 -0.3143351 3.066666
v 0.3143352 -0.1814814 3.066666
v 0.3629629 1.586561e-8 3.066666
v 0.1185185 -0.2052801 2.883333
v 0.2052801 -0.1185185 2.883333
v 0.237037 1.036122e-8 2.883333
v 0.1 -0.1732051 2.7
v 0.1732051 -0.09999999 2.7
v 0.2 8.742278e-9 2.7
v 0 0.3629629 3.066666
v 0.1814815 0.3143351 3.066666
v 0.3143352 0.1814814 3.066666
v 0 0.237037 2.883333
v 0.1185185 0.2052801 2.883333
v 0.2052801 0.1185185 2.883333
v 0 0.2 2.7
v 0.1 0.1732051 2.7
v 0.1732051 0.09999999 2.7
v -0.3143351 0.1814815 3.066666
v -0.1814814 0.3143352 3.066666
v -0.2052801 0.1185185 2.883333
v -0.1185185 0.2052801 2.883333
v -0.1732051 0.1 2.7
v -0.09999999 0.1732051 2.7
v -0.574074 0 2.588889
v -0.4971626 -0.287037 2.588889
v -0.287037 -0.4971628 2.588889
v 2.509357e-8 -0.574074 2.588889
v -1.059259 0 2.511111
v -0.9173453 -0.5296296 2.511111
v -0.5296296 -0.9173455 2.511111
v 4.630169e-8 -1.059259 2.511111
v -1.3 0 2.4
v -1.125833 -0.65 2.4
v -0.6499999 -1.125833 2.4
v 5.68248e-8 -1.3 2.4
v 0.287037 -0.4971626 2.588889
v 0.4971628 -0.287037 2.588889
v 0.574074 2.509357e-8 2.588889
v 0.5296296 -0.9173453 2.511111
v 0.9173455 -0.5296296 2.511111
v 1.059259 4.630169e-8 2.511111
v 0.65 -1.125833 2.4
v 1.125833 -0.6499999 2.4
v 1.3 5.68248e-8 2.4
v 0 0.574074 2.588889
v 0.287037 0.4971626 2.588889
v 0.4971628 0.287037 2.588889
v 0 1.059259 2.511111
v 0.5296296 0.9173453 2.511111
v 0.9173455 0.5296296 2.511111
v 0 1.3 2.4
v 0.65 1.125833 2.4
v 1.125833 0.6499999 2.4
v -0.4971626 0.287037 2.588889
v -0.287037 0.4971628 2.588889
v -0.9173453 0.5296296 2.511111
v -0.5296296 0.9173455 2.511111
v -1.125833 0.65 2.4
v -0.6499999 1.125833 2.4
v -1.4 0 2.4
v -1.212435 -0.7 2.4
v -0.6999999 -1.212436 2.4
v 6.119594e-8 -1.4 2.4
v -1.384259 0 2.4875
v -1.198804 -0.6921296 2.4875
v -0.6921295 -1.198804 2.4875
v 6.050789e-8 -1.384259 2.4875
v -1.432407 0 2.4875
v -1.240501 -0.7162037 2.4875
v -0.7162036 -1.240501 2.4875
v 6.261251e-8 -1.432407 2.4875
v -1.5 0 2.4
v -1.299038 -0.75 2.4
v -0.7499999 -1.299038 2.4
v 6.556708e-8 -1.5 2.4
v 0.7 -1.212435 2.4
v 1.212436 -0.6999999 2.4
v 1.4 6.119594e-8 2.4
v 0.6921296 -1.198804 2.4875
v 1.198804 -0.6921295 2.4875
v 1.384259 6.050789e-8 2.4875
v 0.7162037 -1.240501 2.4875
v 1.240501 -0.7162036 2.4875
v 1.432407 6.261251e-8 2.4875
v 0.75 -1.299038 2.4
v 1.299038 -0.7499999 2.4
v 1.5 6.556708e-8 2.4
v 0 1.4 2.4
v 0.7 1.212435 2.4
v 1.212436 0.6999999 2.4
v 0 1.384259 2.4875
v 0.6921296 1.198804 2.4875
v 1.198804 0.6921295 2.4875
v 0 1.432407 2.4875
v 0.7162037 1.240501 2.4875
v 1.240501 0.7162036 2.4875
v 0 1.5 2.4
v 0.75 1.299038 2.4
v 1.299038 0.7499999 2.4
v -1.212435 0.7 2.4
v -0.6999999 1.212436 2.4
v -1.198804 0.6921296 2.4875
v -0.6921295 1.198804 2.4875
v -1.240501 0.7162037 2.4875
v -0.7162036 1.240501 2.4875
v -1.299038 0.75 2.4
v -0.7499999 1.299038 2.4
v -1.740741 0 1.877778
v -1.507526 -0.8703703 1.877778
v -0.8703703 -1.507526 1.877778
v 7.609018e-8 -1.740741 1.877778
v -1.925926 0 1.372222
v -1.667901 -0.962963 1.372222
v -0.9629629 -1.667901 1.372222
v 8.418489e-8 -1.925926 1.372222
v -1.732051 -1 0.9
v -0.9999999 -1.732051 0.9
v 8.742278e-8 -2 0.9
v 0.8703703 -1.507526 1.877778
v 1.507526 -0.8703703 1.877778
v 1.740741 7.609018e-8 1.877778
v 0.962963 -1.667901 1.372222
v 1.667901 -0.9629629 1.372222
v 1 -1.732051 0.9
v 1.732051 -0.9999999 0.9
v 0 1.740741 1.877778
v 0.8703703 1.507526 1.877778
v 1.507526 0.8703703 1.877778
v 0 1.925926 1.372222
v 0.962963 1.667901 1.372222
v 1.667901 0.9629629 1.372222
v 0 2 0.9
v 1 1.732051 0.9
v 1.732051 0.9999999 0.9
v -1.507526 0.8703703 1.877778
v -0.8703703 1.507526 1.877778
v -1.667901 0.962963 1.372222
v -0.9629629 1.667901 1.372222
v -1.732051 1 0.9
v -0.9999999 1.732051 0.9
v -1.87037 0 0.5222222
v -1.619788 -0.9351851 0.5222222
v -0.935185 -1.619788 0.5222222
v 8.175647e-8 -1.87037 0.5222222
v -1.62963 0 0.2777778
v -1.411301 -0.8148148 0.2777778
v -0.8148147 -1.411301 0.2777778
v 7.123337e-8 -1.62963 0.2777778
v -1.5 0 0.15
v -1.299038 -0.75 0.15
v -0.7499999 -1.299038 0.15
v 6.556708e-8 -1.5 0.15
v 0.9351851 -1.619788 0.5222222
v 1.619788 -0.935185 0.5222222
v 1.87037 8.175647e-8 0.5222222
v 0.8148148 -1.411301 0.2777778
v 1.411301 -0.8148147 0.2777778
v 1.62963 7.123337e-8 0.2777778
v 0.75 -1.299038 0.15
v 1.299038 -0.7499999 0.15
v 1.5 6.556708e-8 0.15
v 0 1.87037 0.5222222
v 0.9351851 1.619788 0.5222222
v 1.619788 0.935185 0.5222222
v 0 1.62963 0.2777778
v 0.8148148 1.411301 0.2777778
v 1.411301 0.8148147 0.2777778
v 0 1.5 0.15
v 0.75 1.299038 0.15
v 1.299038 0.7499999 0.15
v -1.619788 0.9351851 0.5222222
v -0.935185 1.619788 0.5222222
v -1.411301 0.8148148 0.2777778
v -0.8148147 1.411301 0.2777778
v -1.299038 0.75 0.15
v -0.7499999 1.299038 0.15
v -1.427778 0 0.07777777
v -1.236492 -0.7138888 0.07777777
v -0.7138888 -1.236492 0.07777777
v 6.241014e-8 -1.427778 0.07777777
v -1.022222 0 0.02222222
v -0.8852704 -0.5111111 0.02222222
v -0.511111 -0.8852704 0.02222222
v 4.468275e-8 -1.022222 0.02222222
v 0 0 0
v 0.7138888 -1.236492 0.07777777
v 1.236492 -0.7138888 0.07777777
v 1.427778 6.241014e-8 0.07777777
v 0.5111111 -0.8852704 0.02222222
v 0.8852704 -0.511111 0.02222222
v 1.022222 4.468275e-8 0.02222222
v 0 1.427778 0.07777777
v 0.7138888 1.236492 0.07777777
v 1.236492 0.7138888 0.07777777
v 0 1.022222 0.02222222
v 0.5111111 0.8852704 0.02222222
v 0.8852704 0.511111 0.02222222
v -1.236492 0.7138888 0.07777777
v -0.7138888 1.236492 0.07777777
v -0.8852704 0.5111111 0.02222222
v -0.511111 0.8852704 0.02222222
v 2.314807 0 1.512061
v 2.360884 -0.2214814 1.423413
v 2.446456 -0.2214814 1.258781
v 2.492533 0 1.170133
v 2.518526 0 1.958814
v 2.5761 -0.1425185 1.929888
v 2.683025 -0.1425185 1.876168
v 2.7406 0 1.847242
v 2.8 0 2.4
v 3.2 0 2.4
v 1.866978 0 1.348508
v 1.767656 -0.2596473 1.173429
v 1.747474 -0.2612958 0.9041654
v 1.816742 0 0.8013026
v 1.800124 7.868594e-8 1.378093
v 1.717598 -0.296755 1.182286
v 1.713106 -0.2967224 0.8895576
v 1.790634 0 0.760866
v 2.360884 0.2214814 1.423413
v 2.446456 0.2214814 1.258781
v 2.5761 0.1425185 1.929888
v 2.683025 0.1425185 1.876168
v 2.903703 0.1 2.4
v 3.096296 0.1 2.4
v 1.767656 0.2596473 1.173429
v 1.747474 0.2612958 0.9041654
v 1.717598 0.296755 1.182286
v 1.713106 0.2967224 0.8895576
v 0 0 0.18
v -0.3537037 0 0.1811111
v -0.3063164 -0.1768518 0.1811111
v -0.1768518 -0.3063164 0.1811111
v 1.546088e-8 -0.3537037 0.1811111
v -0.8296297 0 0.1888889
v -0.7184803 -0.4148148 0.1888889
v -0.4148148 -0.7184804 0.1888889
v 3.626426e-8 -0.8296297 0.1888889
v -1.15 0 0.21
v -0.9959292 -0.575 0.21
v -0.5749999 -0.9959292 0.21
v 5.02681e-8 -1.15 0.21
v 0.1768518 -0.3063164 0.1811111
v 0.3063164 -0.1768518 0.1811111
v 0.3537037 1.546088e-8 0.1811111
v 0.4148148 -0.7184803 0.1888889
v 0.7184804 -0.4148148 0.1888889
v 0.8296297 3.626426e-8 0.1888889
v 0.575 -0.9959292 0.21
v 0.9959292 -0.5749999 0.21
v 1.15 5.02681e-8 0.21
v 0 0.3537037 0.1811111
v 0.1768518 0.3063164 0.1811111
v 0.3063164 0.1768518 0.1811111
v 0 0.8296297 0.1888889
v 0.4148148 0.7184803 0.1888889
v 0.7184804 0.4148148 0.1888889
v 0 1.15 0.21
v 0.575 0.9959292 0.21
v 0.9959292 0.5749999 0.21
v -0.3063164 0.1768518 0.1811111
v -0.1768518 0.3063164 0.1811111
v -0.7184803 0.4148148 0.1888889
v -0.4148148 0.7184804 0.1888889
v -0.9959292 0.575 0.21
v -0.5749999 0.9959292 0.21
v -1.447407 0 0.3285185
v -1.253491 -0.7237036 0.3285185
v -0.7237035 -1.253492 0.3285185
v 6.326818e-8 -1.447407 0.3285185
v -1.789259 0 0.6714815
v -1.549544 -0.8946297 0.6714815
v -0.8946295 -1.549544 0.6714815
v 7.821101e-8 -1.789259 0.6714815
v -1.8 0 1.37
v -1.558846 -0.9 1.37
v -0.8999999 -1.558846 1.37
v 7.86805e-8 -1.8 1.37
v 0.7237036 -1.253491 0.3285185
v 1.253492 -0.7237035 0.3285185
v 1.447407 6.326818e-8 0.3285185
v 0.8946297 -1.549544 0.6714815
v 1.549544 -0.8946295 0.6714815
v 1.789259 7.821101e-8 0.6714815
v 0.9 -1.558846 1.37
v 1.558846 -0.8999999 1.37
v 1.8 7.86805e-8 1.37
v 0 1.447407 0.3285185
v 0.7237036 1.253491 0.3285185
v 1.253492 0.7237035 0.3285185
v 0 1.789259 0.6714815
v 0.8946297 1.549544 0.6714815
v 1.549544 0.8946295 0.6714815
v 0 1.8 1.37
v 0.9 1.558846 1.37
v 1.558846 0.8999999 1.37
v -1.253491 0.7237036 0.3285185
v -0.7237035 1.253492 0.3285185
v -1.549544 0.8946297 0.6714815
v -0.8946295 1.549544 0.6714815
v -1.558846 0.9 1.37
v -0.8999999 1.558846 1.37
v -1.495926 0 2.112963
v -1.29551 -0.747963 2.112963
v -0.7479628 -1.29551 2.112963
v 6.538899e-8 -1.495926 2.112963
v -1.294074 0 2.307037
v -1.120701 -0.6470371 2.307037
v -0.647037 -1.120701 2.307037
v 5.656577e-8 -1.294074 2.307037
v -1.21 0 2.35
v -1.047891 -0.605 2.35
v -0.605 -1.047891 2.35
v 5.289078e-8 -1.21 2.35
v 0.747963 -1.29551 2.112963
v 1.29551 -0.7479628 2.112963
v 1.495926 6.538899e-8 2.112963
v 0.6470371 -1.120701 2.307037
v 1.120701 -0.647037 2.307037
v 1.294074 5.656577e-8 2.307037
v 0.605 -1.047891 2.35
v 1.047891 -0.605 2.35
v 1.21 5.289078e-8 2.35
v 0 1.495926 2.112963
v 0.747963 1.29551 2.112963
v 1.29551 0.7479628 2.112963
v 0 1.294074 2.307037
v 0.6470371 1.120701 2.307037
v 1.120701 0.647037 2.307037
v 0 1.21 2.35
v 0.605 1.047891 2.35
v 1.047891 0.605 2.35
v -1.29551 0.747963 2.112963
v -0.7479628 1.29551 2.112963
v -1.120701 0.6470371 2.307037
v -0.647037 1.120701 2.307037
v -1.047891 0.605 2.35
v -0.605 1.047891 2.35
v -1.232592 0 2.385185
v -1.067456 -0.6162962 2.385185
v -0.6162962 -1.067457 2.385185
v 5.387833e-8 -1.232592 2.385185
v -1.304074 0 2.398148
v -1.129361 -0.652037 2.398148
v -0.652037 -1.129361 2.398148
v 5.700289e-8 -1.304074 2.398148
v 0.6162962 -1.067456 2.385185
v 1.067457 -0.6162962 2.385185
v 1.232592 5.387833e-8 2.385185
v 0.652037 -1.129361 2.398148
v 1.129361 -0.652037 2.398148
v 1.304074 5.700289e-8 2.398148
v 0 1.232592 2.385185
v 0.6162962 1.067456 2.385185
v 1.067457 0.6162962 2.385185
v 0 1.304074 2.398148
v 0.652037 1.129361 2.398148
v 1.129361 0.652037 2.398148
v -1.067456 0.6162962 2.385185
v -0.6162962 1.067457 2.385185
v -1.129361 0.652037 2.398148
v -0.652037 1.129361 2.398148
v -1.223889 0 2.398148
v -1.059919 -0.6119444 2.398148
v -0.6119443 -1.059919 2.398148
v 5.349788e-8 -1.223889 2.398148
v -1.184444 0 2.385185
v -1.025759 -0.5922222 2.385185
v -0.5922221 -1.025759 2.385185
v 5.177371e-8 -1.184444 2.385185
v -1.165 0 2.35
v -1.00892 -0.5825 2.35
v -0.5824999 -1.00892 2.35
v 5.092377e-8 -1.165 2.35
v 0.6119444 -1.059919 2.398148
v 1.059919 -0.6119443 2.398148
v 1.223889 5.349788e-8 2.398148
v 0.5922222 -1.025759 2.385185
v 1.025759 -0.5922221 2.385185
v 1.184444 5.177371e-8 2.385185
v 0.5825 -1.00892 2.35
v 1.00892 -0.5824999 2.35
v 1.165 5.092377e-8 2.35
v 0 1.223889 2.398148
v 0.6119444 1.059919 2.398148
v 1.059919 0.6119443 2.398148
v 0 1.184444 2.385185
v 0.5922222 1.025759 2.385185
v 1.025759 0.5922221 2.385185
v 0 1.165 2.35
v 0.5825 1.00892 2.35
v 1.00892 0.5824999 2.35
v -1.059919 0.6119444 2.398148
v -0.6119443 1.059919 2.398148
v -1.025759 0.5922222 2.385185
v -0.5922221 1.025759 2.385185
v -1.00892 0.5825 2.35
v -0.5824999 1.00892 2.35
v -1.139629 0 2.33
v -0.9869481 -0.5698147 2.33
v -0.5698147 -0.9869481 2.33
v 4.981479e-8 -1.139629 2.33
v -1.098704 0 2.356667
v -0.9515053 -0.5493518 2.356667
v -0.5493518 -0.9515053 2.356667
v 4.802587e-8 -1.098704 2.356667
v -1.05 0 2.41
v -0.9093266 -0.525 2.41
v -0.5249999 -0.9093267 2.41
v 4.589696e-8 -1.05 2.41
v 0.5698147 -0.9869481 2.33
v 0.9869481 -0.5698147 2.33
v 1.139629 4.981479e-8 2.33
v 0.5493518 -0.9515053 2.356667
v 0.9515053 -0.5493518 2.356667
v 1.098704 4.802587e-8 2.356667
v 0.525 -0.9093266 2.41
v 0.9093267 -0.5249999 2.41
v 1.05 4.589696e-8 2.41
v 0 1.139629 2.33
v 0.5698147 0.9869481 2.33
v 0.9869481 0.5698147 2.33
v 0 1.098704 2.356667
v 0.5493518 0.9515053 2.356667
v 0.9515053 0.5493518 2.356667
v 0 1.05 2.41
v 0.525 0.9093266 2.41
v 0.9093267 0.5249999 2.41
v -0.9869481 0.5698147 2.33
v -0.5698147 0.9869481 2.33
v -0.9515053 0.5493518 2.356667
v -0.5493518 0.9515053 2.356667
v -0.9093266 0.525 2.41
v -0.5249999 0.9093267 2.41
v -0.8444443 0 2.472963
v -0.7313102 -0.4222222 2.472963
v -0.4222221 -0.7313103 2.472963
v 3.691184e-8 -0.8444443 2.472963
v -0.4388888 0 2.527037
v -0.3800889 -0.2194444 2.527037
v -0.2194444 -0.3800889 2.527037
v 1.918444e-8 -0.4388888 2.527037
v 0 0 2.55
v 0.4222222 -0.7313102 2.472963
v 0.7313103 -0.4222221 2.472963
v 0.8444443 3.691184e-8 2.472963
v 0.2194444 -0.3800889 2.527037
v 0.3800889 -0.2194444 2.527037
v 0.4388888 1.918444e-8 2.527037
v 0 0.8444443 2.472963
v 0.4222222 0.7313102 2.472963
v 0.7313103 0.4222221 2.472963
v 0 0.4388888 2.527037
v 0.2194444 0.3800889 2.527037
v 0.3800889 0.2194444 2.527037
v -0.7313102 0.4222222 2.472963
v -0.4222221 0.7313103 2.472963
v -0.3800889 0.2194444 2.527037
v -0.2194444 0.3800889 2.527037

vn -0.09950372 0 0.9950371
vn -0.05581048 -0.8003756 0.5968953
vn 0.04706077 -0.7987689 -0.5997946
vn 0.06802389 0 -0.9976837
vn -0.6246951 0 0.7808688
vn -0.3380912 -0.8231593 0.4561834
vn 0.3009899 -0.8155361 -0.494273
vn 0.4625659 0 -0.8865848
vn -1 0 0
vn -0.6 -0.8 0
vn 0.6000001 -0.7999998 0
vn 1 0 0
vn -0.01209509 0 0.9999268
vn -0.003398908 -0.8000944 0.5998645
vn 0.005510023 -0.7999474 -0.6000448
vn 0.01739866 0 -0.9998487
vn -0.9440838 0 0.3297055
vn -0.93303 -0.1349894 0.3335159
vn -0.9367456 -0.1329238 0.3237886
vn -0.9502518 0 0.3114827
vn -0.05581048 0.8003756 0.5968953
vn 0.04706077 0.7987689 -0.5997946
vn -0.3380912 0.8231593 0.4561834
vn 0.3009899 0.8155361 -0.494273
vn -0.6 0.8 0
vn 0.6000001 0.7999998 0
vn -0.003398908 0.8000944 0.5998645
vn 0.005510023 0.7999474 -0.6000448
vn -0.93303 0.1349894 0.3335159
vn -0.9367456 0.1329238 0.3237886
vn -0.9200848 0 -0.3917193
vn -0.5442483 -0.8092893 -0.221008
vn 0.5567952 -0.8058029 0.2016448
vn 0.9486833 0 0.3162278
vn -0.7226418 0 -0.6912227
vn -0.4614267 -0.7835081 -0.4161735
vn 0.4990485 -0.7722945 0.3930799
vn 0.8123237 0 0.5832069
vn 0.5685372 0 0.8226575
vn 0.4778996 -0.5966436 0.6446926
vn 0.3691619 -0.7902951 0.4890329
vn -0.3322517 -0.7920734 -0.5120826
vn -0.5403531 0 -0.8414384
vn -0.999312 0 0.03708986
vn -0.9967356 -0.08073503 -0.000001027465
vn -0.9908801 -0.1165922 -0.06754916
vn -0.9267673 -0.1150892 -0.3575706
vn -0.8999164 0 -0.4360626
vn -0.5442483 0.8092893 -0.221008
vn 0.5567952 0.8058029 0.2016448
vn -0.4614267 0.7835081 -0.4161735
vn 0.4990485 0.7722945 0.3930799
vn 0.4778996 0.5966436 0.6446926
vn 0.3691619 0.7902951 0.4890329
vn -0.3322517 0.7920734 -0.5120826
vn -0.9967356 0.08073503 -0.000001027465
vn -0.9908801 0.1165922 -0.06754916
vn -0.9267673 0.1150892 -0.3575706
vn 0.7071059 0 -0.7071076
vn 0.2568863 0.9133739 -0.3158443
vn -0.249881 0.8884658 0.3849519
vn -0.5144954 0 0.8574931
vn 0.9486833 0 0.316228
vn 0.1660121 0.8067396 0.5671077
vn -0.1771811 0.5637577 0.8067119
vn -0.3293721 0 0.9442002
vn -0.3939189 0 0.9191452
vn -0.1822544 -0.5865062 0.7891729
vn 0.2280372 -0.9101427 0.345889
vn 0.7893516 0 -0.6139414
vn -0.7071068 0 0.7071068
vn -0.2796589 -0.8949084 0.3477496
vn 0.2684081 -0.8589053 -0.4361637
vn 0.4856427 0 -0.8741574
vn 0.2568863 -0.9133739 -0.3158443
vn -0.249881 -0.8884658 0.3849519
vn 0.1660121 -0.8067396 0.5671077
vn -0.1771811 -0.5637577 0.8067119
vn -0.1822544 0.5865062 0.7891729
vn 0.2280372 0.9101427 0.345889
vn -0.2796589 0.8949084 0.3477496
vn 0.2684081 0.8589053 -0.4361637
vn -0.9701425 0 0.2425357
vn -0.4651289 -0.843757 0.2678233
vn 0.6050074 -0.7951571 -0.04112581
vn 0.9694834 0 -0.2451567
vn -0.8192319 0 0.5734623
vn -0.329937 -0.8624129 0.3839083
vn 0.6371166 -0.7448657 -0.1981352
vn 0.9095958 0 -0.4154944
vn -0.3759609 0 0.9266355
vn -0.2109182 -0.7584018 0.6167173
vn -0.1120128 -0.9066043 0.4068437
vn 0.240226 -0.8996083 -0.3646868
vn 0.3432267 -0.7849236 -0.5158394
vn 0.4981143 0 -0.8671113
vn 0.9710802 4.244651e-8 0.2387537
vn 0.9604672 -0.1785175 0.2136222
vn 0.9520772 -0.2407977 0.188588
vn 0.9694064 -0.2450684 0.01388006
vn 0.9810517 -0.1937457 2.361105e-8
vn 0.9829978 0 -0.1836175
vn -0.4651289 0.843757 0.2678233
vn 0.6050074 0.7951571 -0.04112581
vn -0.329937 0.8624129 0.3839083
vn 0.6371166 0.7448657 -0.1981352
vn -0.2109182 0.7584018 0.6167173
vn -0.1120128 0.9066043 0.4068437
vn 0.240226 0.8996083 -0.3646868
vn 0.3432267 0.7849236 -0.5158394
vn 0.9604672 0.1785175 0.2136222
vn 0.9520772 0.2407977 0.188588
vn 0.9694064 0.2450684 0.01388006
vn 0.9810517 0.1937457 2.361105e-8
vn 0 0 1
vn -0.9938838 0 0.1104314
vn -0.8607286 -0.4969418 0.1104314
vn -0.4969418 -0.8607286 0.1104314
vn 4.344405e-8 -0.9938838 0.1104314
vn -0.8320503 0 -0.5547002
vn -0.7205767 -0.4160251 -0.5547003
vn -0.4160251 -0.7205767 -0.5547003
vn 3.637008e-8 -0.8320503 -0.5547002
vn -0.7071069 0 0.7071068
vn -0.6123725 -0.3535534 0.7071067
vn -0.3535534 -0.6123725 0.7071067
vn 3.090863e-8 -0.7071069 0.7071068
vn 0.4969418 -0.8607286 0.1104314
vn 0.8607286 -0.4969418 0.1104314
vn 0.9938838 4.344405e-8 0.1104314
vn 0.4160251 -0.7205767 -0.5547003
vn 0.7205767 -0.4160251 -0.5547003
vn 0.8320503 3.637008e-8 -0.5547002
vn 0.3535534 -0.6123725 0.7071067
vn 0.6123725 -0.3535534 0.7071067
vn 0.7071069 3.090863e-8 0.7071068
vn 0 0.9938838 0.1104314
vn 0.4969418 0.8607286 0.1104314
vn 0.8607286 0.4969418 0.1104314
vn 0 0.8320503 -0.5547002
vn 0.4160251 0.7205767 -0.5547003
vn 0.7205767 0.4160251 -0.5547003
vn 0 0.7071069 0.7071068
vn 0.3535534 0.6123725 0.7071067
vn 0.6123725 0.3535534 0.7071067
vn -0.8607286 0.4969418 0.1104314
vn -0.4969418 0.8607286 0.1104314
vn -0.7205767 0.4160251 -0.5547003
vn -0.4160251 0.7205767 -0.5547003
vn -0.6123725 0.3535534 0.7071067
vn -0.3535534 0.6123725 0.7071067
vn -0.2216209 0 0.9751329
vn -0.1919294 -0.1108105 0.9751329
vn -0.1108104 -0.1919294 0.9751329
vn 9.687358e-9 -0.2216209 0.9751329
vn -0.2544933 0 0.9670745
vn -0.2203977 -0.1272467 0.9670746
vn -0.1272466 -0.2203977 0.9670745
vn 1.112426e-8 -0.2544933 0.9670745
vn -1 0 0
vn -0.8660253 -0.5000001 0
vn -0.4999999 -0.8660255 0
vn 4.371139e-8 -1 0
vn 0.1108105 -0.1919294 0.9751329
vn 0.1919294 -0.1108104 0.9751329
vn 0.2216209 9.687358e-9 0.9751329
vn 0.1272467 -0.2203977 0.9670746
vn 0.2203977 -0.1272466 0.9670745
vn 0.2544933 1.112426e-8 0.9670745
vn 0.5000001 -0.8660253 0
vn 0.8660255 -0.4999999 0
vn 1 4.371139e-8 0
vn 0 0.2216209 0.9751329
vn 0.1108105 0.1919294 0.9751329
vn 0.1919294 0.1108104 0.9751329
vn 0 0.2544933 0.9670745
vn 0.1272467 0.2203977 0.9670746
vn 0.2203977 0.1272466 0.9670745
vn 0 1 0
vn 0.5000001 0.8660253 0
vn 0.8660255 0.4999999 0
vn -0.1919294 0.1108105 0.9751329
vn -0.1108104 0.1919294 0.9751329
vn -0.2203977 0.1272467 0.9670746
vn -0.1272466 0.2203977 0.9670745
vn -0.8660253 0.5000001 0
vn -0.4999999 0.8660255 0
vn 0.9417419 0 -0.3363365
vn 0.8155724 0.470871 -0.3363361
vn 0.4708709 0.8155723 -0.3363366
vn -4.116484e-8 0.9417419 -0.3363365
vn 0.9269468 0 0.3751931
vn 0.8027593 0.4634733 0.3751934
vn 0.4634733 0.8027594 0.3751929
vn -4.051812e-8 0.9269468 0.3751931
vn -0.6663308 0 0.7456563
vn -0.5770596 -0.3331655 0.7456561
vn -0.3331654 -0.5770594 0.7456563
vn 2.912624e-8 -0.6663308 0.7456563
vn -0.9417419 0 0.3363365
vn -0.8155724 -0.470871 0.3363361
vn -0.4708709 -0.8155723 0.3363366
vn 4.116484e-8 -0.9417419 0.3363365
vn -0.470871 0.8155724 -0.3363361
vn -0.8155723 0.4708709 -0.3363366
vn -0.9417419 -4.116484e-8 -0.3363365
vn -0.4634733 0.8027593 0.3751934
vn -0.8027594 0.4634733 0.3751929
vn -0.9269468 -4.051812e-8 0.3751931
vn 0.3331655 -0.5770596 0.7456561
vn 0.5770594 -0.3331654 0.7456563
vn 0.6663308 2.912624e-8 0.7456563
vn 0.470871 -0.8155724 0.3363361
vn 0.8155723 -0.4708709 0.3363366
vn 0.9417419 4.116484e-8 0.3363365
vn 0 -0.9417419 -0.3363365
vn -0.470871 -0.8155724 -0.3363361
vn -0.8155723 -0.4708709 -0.3363366
vn 0 -0.9269468 0.3751931
vn -0.4634733 -0.8027593 0.3751934
vn -0.8027594 -0.4634733 0.3751929
vn 0 0.6663308 0.7456563
vn 0.3331655 0.5770596 0.7456561
vn 0.5770594 0.3331654 0.7456563
vn 0 0.9417419 0.3363365
vn 0.470871 0.8155724 0.3363361
vn 0.8155723 0.4708709 0.3363366
vn 0.8155724 -0.470871 -0.3363361
vn 0.4708709 -0.8155723 -0.3363366
vn 0.8027593 -0.4634733 0.3751934
vn 0.4634733 -0.8027594 0.3751929
vn -0.5770596 0.3331655 0.7456561
vn -0.3331654 0.5770594 0.7456563
vn -0.8155724 0.470871 0.3363361
vn -0.4708709 0.8155723 0.3363366
vn -0.9517086 0 0.3070028
vn -0.8242038 -0.4758544 0.3070028
vn -0.4758542 -0.8242038 0.3070028
vn 4.160049e-8 -0.9517086 0.3070028
vn -0.9782851 0 0.2072638
vn -0.8472197 -0.4891426 0.2072638
vn -0.4891425 -0.8472198 0.2072638
vn 4.27622e-8 -0.9782851 0.2072638
vn -0.8660254 -0.5000001 0
vn -0.5 -0.8660254 0
vn 4.371138e-8 -1 0
vn 0.4758544 -0.8242038 0.3070028
vn 0.8242038 -0.4758542 0.3070028
vn 0.9517086 4.160049e-8 0.3070028
vn 0.4891426 -0.8472197 0.2072638
vn 0.8472198 -0.4891425 0.2072638
vn 0.5000001 -0.8660254 0
vn 0.8660254 -0.5 0
vn 0 0.9517086 0.3070028
vn 0.4758544 0.8242038 0.3070028
vn 0.8242038 0.4758542 0.3070028
vn 0 0.9782851 0.2072638
vn 0.4891426 0.8472197 0.2072638
vn 0.8472198 0.4891425 0.2072638
vn 0 1 0
vn 0.5000001 0.8660254 0
vn 0.8660254 0.5 0
vn -0.8242038 0.4758544 0.3070028
vn -0.4758542 0.8242038 0.3070028
vn -0.8472197 0.4891426 0.2072638
vn -0.4891425 0.8472198 0.2072638
vn -0.8660254 0.5000001 0
vn -0.5 0.8660254 0
vn -0.8797065 0 -0.475517
vn -0.7618482 -0.4398533 -0.475517
vn -0.4398533 -0.7618483 -0.475517
vn 3.845318e-8 -0.8797065 -0.475517
vn -0.7399401 0 -0.6726727
vn -0.6408069 -0.3699701 -0.6726727
vn -0.36997 -0.6408069 -0.6726727
vn 3.234381e-8 -0.7399401 -0.6726727
vn -1 0 0
vn -0.8660254 -0.5000001 0
vn -0.4999999 -0.8660254 0
vn 4.371138e-8 -1 0
vn 0.4398533 -0.7618482 -0.475517
vn 0.7618483 -0.4398533 -0.475517
vn 0.8797065 3.845318e-8 -0.475517
vn 0.3699701 -0.6408069 -0.6726727
vn 0.6408069 -0.36997 -0.6726727
vn 0.7399401 3.234381e-8 -0.6726727
vn 0.5000001 -0.8660254 0
vn 0.8660254 -0.4999999 0
vn 1 4.371138e-8 0
vn 0 0.8797065 -0.475517
vn 0.4398533 0.7618482 -0.475517
vn 0.7618483 0.4398533 -0.475517
vn 0 0.7399401 -0.6726727
vn 0.3699701 0.6408069 -0.6726727
vn 0.6408069 0.36997 -0.6726727
vn 0 1 0
vn 0.5000001 0.8660254 0
vn 0.8660254 0.4999999 0
vn -0.7618482 0.4398533 -0.475517
vn -0.4398533 0.7618483 -0.475517
vn -0.6408069 0.3699701 -0.6726727
vn -0.36997 0.6408069 -0.6726727
vn -0.8660254 0.5000001 0
vn -0.4999999 0.8660254 0
vn -0.4207249 0 -0.9071883
vn -0.3643585 -0.2103625 -0.9071883
vn -0.2103625 -0.3643585 -0.9071883
vn 1.839047e-8 -0.4207249 -0.9071883
vn -0.08304548 0 -0.9965458
vn -0.07191949 -0.04152274 -0.9965458
vn -0.04152273 -0.07191949 -0.9965458
vn 3.630033e-9 -0.08304548 -0.9965458
vn 0 0 -1
vn 0.2103625 -0.3643585 -0.9071883
vn 0.3643585 -0.2103625 -0.9071883
vn 0.4207249 1.839047e-8 -0.9071883
vn 0.04152274 -0.07191949 -0.9965458
vn 0.07191949 -0.04152273 -0.9965458
vn 0.08304548 3.630033e-9 -0.9965458
vn 0 0.4207249 -0.9071883
vn 0.2103625 0.3643585 -0.9071883
vn 0.3643585 0.2103625 -0.9071883
vn 0 0.08304548 -0.9965458
vn 0.04152274 0.07191949 -0.9965458
vn 0.07191949 0.04152273 -0.9965458
vn -0.3643585 0.2103625 -0.9071883
vn -0.2103625 0.3643585 -0.9071883
vn -0.07191949 0.04152274 -0.9965458
vn -0.04152273 0.07191949 -0.9965458
vn 0.8353692 0 -0.5496893
vn 0.3720893 0.8678385 -0.3292504
vn -0.5690601 0.7944086 0.2123331
vn -0.901579 0 0.4326144
vn 0.9699727 0 -0.2432143
vn 0.4773444 0.853828 -0.207654
vn -0.5540291 0.8297761 0.06725666
vn -0.9695579 0 0.244862
vn 0.7071068 0 -0.7071068
vn -0.5144957 0 0.857493
vn 0.4033241 0 -0.9150572
vn 0.1232653 0.9218001 -0.3675461
vn -0.179052 0.9204026 0.3475622
vn -0.434682 0 0.900584
vn -0.9735178 -4.255726e-8 -0.228611
vn -0.9827212 0.1697219 -0.073848
vn -0.9707699 0.1681062 0.171307
vn -0.9625574 0 0.2710778
vn 0.3720893 -0.8678385 -0.3292504
vn -0.5690601 -0.7944086 0.2123331
vn 0.4773444 -0.853828 -0.207654
vn -0.5540291 -0.8297761 0.06725666
vn 0.2580114 -0.917374 -0.3030758
vn -0.2509515 -0.8922719 0.3753321
vn 0.1232653 -0.9218001 -0.3675461
vn -0.179052 -0.9204026 0.3475622
vn -0.9827212 -0.1697219 -0.073848
vn -0.9707699 -0.1681062 0.171307
vn 0 0 1
vn 0.009638106 0 0.9999536
vn 0.008346844 0.004819053 0.9999536
vn 0.004819052 0.008346844 0.9999536
vn -4.212949e-10 0.009638106 0.9999536
vn 0.03996803 0 0.9992009
vn 0.03461333 0.01998402 0.9992009
vn 0.01998401 0.03461333 0.9992009
vn -1.747058e-9 0.03996803 0.9992009
vn 0.2576627 0 0.966235
vn 0.2231424 0.1288313 0.966235
vn 0.1288313 0.2231424 0.966235
vn -1.126279e-8 0.2576627 0.966235
vn -0.004819053 0.008346844 0.9999536
vn -0.008346844 0.004819052 0.9999536
vn -0.009638106 -4.212949e-10 0.9999536
vn -0.01998402 0.03461333 0.9992009
vn -0.03461333 0.01998401 0.9992009
vn -0.03996803 -1.747058e-9 0.9992009
vn -0.1288313 0.2231424 0.966235
vn -0.2231424 0.1288313 0.966235
vn -0.2576627 -1.126279e-8 0.966235
vn 0 -0.009638106 0.9999536
vn -0.004819053 -0.008346844 0.9999536
vn -0.008346844 -0.004819052 0.9999536
vn 0 -0.03996803 0.9992009
vn -0.01998402 -0.03461333 0.9992009
vn -0.03461333 -0.01998401 0.9992009
vn 0 -0.2576627 0.966235
vn -0.1288313 -0.2231424 0.966235
vn -0.2231424 -0.1288313 0.966235
vn 0.008346844 -0.004819053 0.9999536
vn 0.004819052 -0.008346844 0.9999536
vn 0.03461333 -0.01998402 0.9992009
vn 0.01998401 -0.03461333 0.9992009
vn 0.2231424 -0.1288313 0.966235
vn 0.1288313 -0.2231424 0.966235
vn 0.5889165 0 0.8081939
vn 0.5100167 0.2944583 0.8081939
vn 0.2944583 0.5100167 0.8081939
vn -2.574236e-8 0.5889165 0.8081939
vn 0.9411477 0 0.3379956
vn 0.8150578 0.4705739 0.3379956
vn 0.4705739 0.8150578 0.3379957
vn -4.113888e-8 0.9411477 0.3379956
vn 0.9749242 0 -0.222537
vn 0.8443092 0.4874622 -0.222537
vn 0.4874621 0.8443092 -0.222537
vn -4.261529e-8 0.9749242 -0.222537
vn -0.2944583 0.5100167 0.8081939
vn -0.5100167 0.2944583 0.8081939
vn -0.5889165 -2.574236e-8 0.8081939
vn -0.4705739 0.8150578 0.3379956
vn -0.8150578 0.4705739 0.3379957
vn -0.9411477 -4.113888e-8 0.3379956
vn -0.4874622 0.8443092 -0.222537
vn -0.8443092 0.4874621 -0.222537
vn -0.9749242 -4.261529e-8 -0.222537
vn 0 -0.5889165 0.8081939
vn -0.2944583 -0.5100167 0.8081939
vn -0.5100167 -0.2944583 0.8081939
vn 0 -0.9411477 0.3379956
vn -0.4705739 -0.8150578 0.3379956
vn -0.8150578 -0.4705739 0.3379957
vn 0 -0.9749242 -0.222537
vn -0.4874622 -0.8443092 -0.222537
vn -0.8443092 -0.4874621 -0.222537
vn 0.5100167 -0.2944583 0.8081939
vn 0.2944583 -0.5100167 0.8081939
vn 0.8150578 -0.4705739 0.3379956
vn 0.4705739 -0.8150578 0.3379957
vn 0.8443092 -0.4874622 -0.222537
vn 0.4874621 -0.8443092 -0.222537
vn 0.9027453 0 -0.4301756
vn 0.7818003 0.4513726 -0.4301755
vn 0.4513726 0.7818003 -0.4301756
vn -3.946025e-8 0.9027453 -0.4301756
vn 0.4315371 0 -0.9020953
vn 0.3737221 0.2157685 -0.9020952
vn 0.2157685 0.373722 -0.9020953
vn -1.886309e-8 0.4315371 -0.9020953
vn 0.9889364 0 -0.1483402
vn 0.856444 0.4944682 -0.1483403
vn 0.4944681 0.856444 -0.1483403
vn -4.322779e-8 0.9889364 -0.1483402
vn -0.4513726 0.7818003 -0.4301755
vn -0.7818003 0.4513726 -0.4301756
vn -0.9027453 -3.946025e-8 -0.4301756
vn -0.2157685 0.3737221 -0.9020952
vn -0.373722 0.2157685 -0.9020953
vn -0.4315371 -1.886309e-8 -0.9020953
vn -0.4944682 0.856444 -0.1483403
vn -0.856444 0.4944681 -0.1483403
vn -0.9889364 -4.322779e-8 -0.1483402
vn 0 -0.9027453 -0.4301756
vn -0.4513726 -0.7818003 -0.4301755
vn -0.7818003 -0.4513726 -0.4301756
vn 0 -0.4315371 -0.9020953
vn -0.2157685 -0.3737221 -0.9020952
vn -0.373722 -0.2157685 -0.9020953
vn 0 -0.9889364 -0.1483402
vn -0.4944682 -0.856444 -0.1483403
vn -0.856444 -0.4944681 -0.1483403
vn 0.7818003 -0.4513726 -0.4301755
vn 0.4513726 -0.7818003 -0.4301756
vn 0.3737221 -0.2157685 -0.9020952
vn 0.2157685 -0.373722 -0.9020953
vn 0.856444 -0.4944682 -0.1483403
vn 0.4944681 -0.856444 -0.1483403
vn 0.5015303 0 0.8651401
vn 0.4343382 0.2507653 0.86514
vn 0.250765 0.4343379 0.8651401
vn -2.192259e-8 0.5015303 0.8651401
vn 0.08408925 0 0.9964582
vn 0.07282343 0.04204463 0.9964582
vn 0.04204461 0.07282341 0.9964582
vn -3.675657e-9 0.08408925 0.9964582
vn 0 0 1
vn 0 0 1
vn 0 0 1
vn 0 0 1
vn -0.2507653 0.4343382 0.86514
vn -0.4343379 0.250765 0.8651401
vn -0.5015303 -2.192259e-8 0.8651401
vn -0.04204463 0.07282343 0.9964582
vn -0.07282341 0.04204461 0.9964582
vn -0.08408925 -3.675657e-9 0.9964582
vn 0 0 1
vn 0 0 1
vn 0 0 1
vn 0 -0.5015303 0.8651401
vn -0.2507653 -0.4343382 0.86514
vn -0.4343379 -0.250765 0.8651401
vn 0 -0.08408925 0.9964582
vn -0.04204463 -0.07282343 0.9964582
vn -0.07282341 -0.04204461 0.9964582
vn 0 0 1
vn 0 0 1
vn 0 0 1
vn 0.4343382 -0.2507653 0.86514
vn 0.250765 -0.4343379 0.8651401
vn 0.07282343 -0.04204463 0.9964582
vn 0.04204461 -0.07282341 0.9964582
vn 0 0 1
vn 0 0 1
vn 0 0 -1
vn 0 0 -1
vn 0 0 -1
vn 0 0 -1
vn -0.133475 0 -0.9910522
vn -0.1155928 -0.06673752 -0.9910522
vn -0.06673745 -0.1155927 -0.9910522
vn 5.834376e-9 -0.133475 -0.9910522
vn -0.7432935 0 -0.6689654
vn -0.6437115 -0.371647 -0.6689649
vn -0.3716466 -0.643711 -0.6689656
vn 3.249039e-8 -0.7432935 -0.6689654
vn -0.9756098 0 -0.2195122
vn -0.8449029 -0.4878049 -0.219512
vn -0.4878048 -0.8449029 -0.219512
vn 4.264526e-8 -0.9756098 -0.2195122
vn 0 0 -1
vn 0 0 -1
vn 0 0 -1
vn 0.06673752 -0.1155928 -0.9910522
vn 0.1155927 -0.06673745 -0.9910522
vn 0.133475 5.834376e-9 -0.9910522
vn 0.371647 -0.6437115 -0.6689649
vn 0.643711 -0.3716466 -0.6689656
vn 0.7432935 3.249039e-8 -0.6689654
vn 0.4878049 -0.8449029 -0.219512
vn 0.8449029 -0.4878048 -0.219512
vn 0.9756098 4.264526e-8 -0.2195122
vn 0 0 -1
vn 0 0 -1
vn 0 0 -1
vn 0 0.133475 -0.9910522
vn 0.06673752 0.1155928 -0.9910522
vn 0.1155927 0.06673745 -0.9910522
vn 0 0.7432935 -0.6689654
vn 0.371647 0.6437115 -0.6689649
vn 0.643711 0.3716466 -0.6689656
vn 0 0.9756098 -0.2195122
vn 0.4878049 0.8449029 -0.219512
vn 0.8449029 0.4878048 -0.219512
vn 0 0 -1
vn 0 0 -1
vn -0.1155928 0.06673752 -0.9910522
vn -0.06673745 0.1155927 -0.9910522
vn -0.6437115 0.371647 -0.6689649
vn -0.3716466 0.643711 -0.6689656
vn -0.8449029 0.4878049 -0.219512
vn -0.4878048 0.8449029 -0.219512
vn 0.249878 0 -0.9682773
vn 0.2164006 0.1249389 -0.9682773
vn 0.124939 0.2164007 -0.9682773
vn -1.092252e-8 0.249878 -0.9682773
vn 0.7816012 0 -0.6237785
vn 0.6768864 0.3908006 -0.6237786
vn 0.3908005 0.6768864 -0.6237786
vn -3.416487e-8 0.7816012 -0.6237785
vn 0.8479977 0 -0.5299999
vn 0.7343875 0.4239988 -0.5299999
vn 0.4239988 0.7343875 -0.5299999
vn -3.706716e-8 0.8479977 -0.5299999
vn -0.1249389 0.2164006 -0.9682773
vn -0.2164007 0.124939 -0.9682773
vn -0.249878 -1.092252e-8 -0.9682773
vn -0.3908006 0.6768864 -0.6237786
vn -0.6768864 0.3908005 -0.6237786
vn -0.7816012 -3.416487e-8 -0.6237785
vn -0.4239988 0.7343875 -0.5299999
vn -0.7343875 0.4239988 -0.5299999
vn -0.8479977 -3.706716e-8 -0.5299999
vn 0 -0.249878 -0.9682773
vn -0.1249389 -0.2164006 -0.9682773
vn -0.2164007 -0.124939 -0.9682773
vn 0 -0.7816012 -0.6237785
vn -0.3908006 -0.6768864 -0.6237786
vn -0.6768864 -0.3908005 -0.6237786
vn 0 -0.8479977 -0.5299999
vn -0.4239988 -0.7343875 -0.5299999
vn -0.7343875 -0.4239988 -0.5299999
vn 0.2164006 -0.1249389 -0.9682773
vn 0.124939 -0.2164007 -0.9682773
vn 0.6768864 -0.3908006 -0.6237786
vn 0.3908005 -0.6768864 -0.6237786
vn 0.7343875 -0.4239988 -0.5299999
vn 0.4239988 -0.7343875 -0.5299999
vn 0.2415207 0 -0.9703957
vn 0.2091631 0.1207604 -0.9703957
vn 0.1207604 0.2091631 -0.9703957
vn -1.055721e-8 0.2415207 -0.9703957
vn 0.1241353 0 -0.9922653
vn 0.1075044 0.06206768 -0.9922653
vn 0.06206767 0.1075044 -0.9922653
vn -5.426129e-9 0.1241353 -0.9922653
vn 0 0 -1
vn -0.1207604 0.2091631 -0.9703957
vn -0.2091631 0.1207604 -0.9703957
vn -0.2415207 -1.055721e-8 -0.9703957
vn -0.06206768 0.1075044 -0.9922653
vn -0.1075044 0.06206767 -0.9922653
vn -0.1241353 -5.426129e-9 -0.9922653
vn 0 -0.2415207 -0.9703957
vn -0.1207604 -0.2091631 -0.9703957
vn -0.2091631 -0.1207604 -0.9703957
vn 0 -0.1241353 -0.9922653
vn -0.06206768 -0.1075044 -0.9922653
vn -0.1075044 -0.06206767 -0.9922653
vn 0.2091631 -0.1207604 -0.9703957
vn 0.1207604 -0.2091631 -0.9703957
vn 0.1075044 -0.06206768 -0.9922653
vn 0.06206767 -0.1075044 -0.9922653

vt 0.125 0.6990741
vt 0.1640625 0.6984484
vt 0.203125 0.6969056
vt 0.2421875 0.6957672
vt 0.125 0.6600529
vt 0.1640625 0.659177
vt 0.203125 0.6570171
vt 0.2421875 0.6554233
vt 0.125 0.625
vt 0.1640625 0.625
vt 0.203125 0.625
vt 0.2421875 0.625
vt 0.125 0.743813
vt 0.1640625 0.7468607
vt 0.203125 0.7437842
vt 0.2421875 0.7361361
vt 0.125 0.746868
vt 0.1640625 0.7499157
vt 0.203125 0.7468392
vt 0.2421875 0.739191
vt 0.0859375 0.6984484
vt 0.046875 0.6969056
vt 0.0078125 0.6957672
vt 0.0859375 0.659177
vt 0.046875 0.6570171
vt 0.0078125 0.6554233
vt 0.0859375 0.625
vt 0.046875 0.625
vt 0.0078125 0.625
vt 0.0859375 0.7468607
vt 0.046875 0.7437842
vt 0.0078125 0.7361361
vt 0.0859375 0.7499157
vt 0.046875 0.7468392
vt 0.0078125 0.739191
vt 0.125 0.5909087
vt 0.1640625 0.5916342
vt 0.203125 0.5933627
vt 0.2421875 0.594573
vt 0.125 0.5528503
vt 0.1640625 0.553037
vt 0.203125 0.5534213
vt 0.2421875 0.5536535
vt 0.2421875 0.5159469
vt 0.2152367 0.5210986
vt 0.203125 0.5215372
vt 0.1640625 0.5139707
vt 0.125 0.5138147
vt 0.2421875 0.5124372
vt 0.2152367 0.5175889
vt 0.203125 0.5180275
vt 0.1640625 0.510461
vt 0.125 0.510305
vt 0.0859375 0.5916342
vt 0.046875 0.5933627
vt 0.0078125 0.594573
vt 0.0859375 0.553037
vt 0.046875 0.5534213
vt 0.0078125 0.5536535
vt 0.0078125 0.5159469
vt 0.03476329 0.5210986
vt 0.046875 0.5215372
vt 0.0859375 0.5139707
vt 0.0078125 0.5124372
vt 0.03476329 0.5175889
vt 0.046875 0.5180275
vt 0.0859375 0.510461
vt 0.75 0.75
vt 0.7916667 0.75
vt 0.8333333 0.75
vt 0.875 0.75
vt 0.75 0.7371994
vt 0.7916667 0.7366766
vt 0.8333333 0.7361007
vt 0.875 0.7359558
vt 0.75 0.7253006
vt 0.7916667 0.7253
vt 0.8333333 0.7252444
vt 0.875 0.7251845
vt 0.75 0.7125
vt 0.7916667 0.7125
vt 0.8333333 0.7125
vt 0.875 0.7125
vt 1 0.75
vt 0.9583333 0.75
vt 0.9166667 0.75
vt 1 0.7371994
vt 0.9583333 0.7366766
vt 0.9166667 0.7361007
vt 1 0.7253006
vt 0.9583333 0.7253
vt 0.9166667 0.7252444
vt 1 0.7125
vt 0.9583333 0.7125
vt 0.9166667 0.7125
vt 0.75 0.6547451
vt 0.7916667 0.6539723
vt 0.8333333 0.6528042
vt 0.875 0.6523086
vt 0.75 0.5833989
vt 0.7916667 0.5818783
vt 0.8333333 0.5804038
vt 0.875 0.5799507
vt 0.75 0.5380255
vt 0.7807186 0.5308195
vt 0.7916667 0.5267766
vt 0.8333333 0.5273704
vt 0.8422801 0.5294994
vt 0.875 0.5318758
vt 0.75 0.5300352
vt 0.7807186 0.5228292
vt 0.7916667 0.5187863
vt 0.8333333 0.5193801
vt 0.8422801 0.5215091
vt 0.875 0.5238855
vt 1 0.6547451
vt 0.9583333 0.6539723
vt 0.9166667 0.6528042
vt 1 0.5833989
vt 0.9583333 0.5818783
vt 0.9166667 0.5804038
vt 1 0.5380255
vt 0.9692814 0.5308195
vt 0.9583333 0.5267766
vt 0.9166667 0.5273704
vt 0.9077199 0.5294994
vt 1 0.5300352
vt 0.9692814 0.5228292
vt 0.9583333 0.5187863
vt 0.9166667 0.5193801
vt 0.9077199 0.5215091
vt 0.375 0.625
vt 0.375 0.5772704
vt 0.3988648 0.583665
vt 0.416335 0.6011353
vt 0.4227296 0.625
vt 0.375 0.5351084
vt 0.4199458 0.5471516
vt 0.4528484 0.5800542
vt 0.4648916 0.625
vt 0.375 0.5078125
vt 0.4335938 0.5235127
vt 0.4764874 0.5664063
vt 0.4921875 0.625
vt 0.416335 0.6488648
vt 0.3988648 0.666335
vt 0.375 0.6727296
vt 0.4528484 0.6699458
vt 0.4199458 0.7028484
vt 0.375 0.7148916
vt 0.4764873 0.6835938
vt 0.4335938 0.7264873
vt 0.375 0.7421875
vt 0.3272704 0.625
vt 0.333665 0.6488648
vt 0.3511352 0.666335
vt 0.2851084 0.625
vt 0.2971516 0.6699458
vt 0.3300542 0.7028484
vt 0.2578125 0.625
vt 0.2735127 0.6835938
vt 0.3164063 0.7264873
vt 0.3511352 0.583665
vt 0.333665 0.6011353
vt 0.3300542 0.5471516
vt 0.2971516 0.5800542
vt 0.3164063 0.5235127
vt 0.2735126 0.5664063
vt 0.625 0.6069711
vt 0.6340144 0.6093866
vt 0.6406134 0.6159856
vt 0.6430289 0.625
vt 0.625 0.5754362
vt 0.6497819 0.5820765
vt 0.6679235 0.6002182
vt 0.6745638 0.625
vt 0.625 0.5353872
vt 0.6698064 0.547393
vt 0.702607 0.5801936
vt 0.7146128 0.625
vt 0.625 0.5078125
vt 0.6835938 0.5235127
vt 0.7264873 0.5664063
vt 0.7421875 0.625
vt 0.6406134 0.6340144
vt 0.6340144 0.6406134
vt 0.625 0.6430289
vt 0.6679235 0.6497819
vt 0.6497819 0.6679235
vt 0.625 0.6745638
vt 0.702607 0.6698064
vt 0.6698064 0.702607
vt 0.625 0.7146128
vt 0.7264873 0.6835938
vt 0.6835938 0.7264873
vt 0.625 0.7421875
vt 0.6069711 0.625
vt 0.6093866 0.6340144
vt 0.6159856 0.6406134
vt 0.5754362 0.625
vt 0.5820765 0.6497819
vt 0.6002181 0.6679235
vt 0.5353872 0.625
vt 0.547393 0.6698064
vt 0.5801936 0.702607
vt 0.5078125 0.625
vt 0.5235127 0.6835938
vt 0.5664063 0.7264873
vt 0.6159856 0.6093866
vt 0.6093866 0.6159856
vt 0.6002181 0.5820765
vt 0.5820765 0.6002182
vt 0.5801936 0.547393
vt 0.547393 0.5801936
vt 0.5664063 0.5235127
vt 0.5235127 0.5664063
vt 0 0.25
vt 0.08333334 0.25
vt 0.1666667 0.25
vt 0.25 0.25
vt 0 0.2395957
vt 0.08333334 0.2395957
vt 0.1666667 0.2395957
vt 0.25 0.2395957
vt 0 0.2304044
vt 0.08333334 0.2304044
vt 0.1666667 0.2304044
vt 0.25 0.2304044
vt 0 0.22
vt 0.08333334 0.22
vt 0.1666667 0.22
vt 0.25 0.22
vt 0.3333333 0.25
vt 0.4166667 0.25
vt 0.5 0.25
vt 0.3333333 0.2395957
vt 0.4166667 0.2395957
vt 0.5 0.2395957
vt 0.3333333 0.2304044
vt 0.4166667 0.2304044
vt 0.5 0.2304044
vt 0.3333333 0.22
vt 0.4166667 0.22
vt 0.5 0.22
vt 0.75 0.25
vt 0.6666666 0.25
vt 0.5833333 0.25
vt 0.75 0.2395957
vt 0.6666666 0.2395957
vt 0.5833333 0.2395957
vt 0.75 0.2304044
vt 0.6666666 0.2304044
vt 0.5833333 0.2304044
vt 0.75 0.22
vt 0.6666666 0.22
vt 0.5833333 0.22
vt 1 0.25
vt 0.9166667 0.25
vt 0.8333333 0.25
vt 1 0.2395957
vt 0.9166667 0.2395957
vt 0.8333333 0.2395957
vt 1 0.2304044
vt 0.9166667 0.2304044
vt 0.8333333 0.2304044
vt 1 0.22
vt 0.9166667 0.22
vt 0.8333333 0.22
vt 0 0.1722529
vt 0.08333334 0.1722529
vt 0.1666667 0.1722529
vt 0.25 0.1722529
vt 0 0.1265661
vt 0.08333334 0.1265661
vt 0.1666667 0.1265661
vt 0.25 0.1265661
vt 0.08333334 0.08499998
vt 0.1666667 0.08499998
vt 0.25 0.08499998
vt 0 0.2091619
vt 0.02311972 0.2021207
vt 0.02273984 0.1867368
vt 0 0.1795163
vt 0 0.09241492
vt 0.01321332 0.08499998
vt 0.3333333 0.1722529
vt 0.4166667 0.1722529
vt 0.5 0.1722529
vt 0.3333333 0.1265661
vt 0.4166667 0.1265661
vt 0.3333333 0.08499998
vt 0.4166667 0.08499998
vt 0.5 0.1408653
vt 0.4704919 0.1265661
vt 0.4604354 0.1213879
vt 0.4605327 0.08767486
vt 0.4687394 0.08499998
vt 0.75 0.1722529
vt 0.6666666 0.1722529
vt 0.5833333 0.1722529
vt 0.75 0.1265661
vt 0.6666666 0.1265661
vt 0.5833333 0.1265661
vt 0.75 0.08499998
vt 0.6666666 0.08499998
vt 0.5833333 0.08499998
vt 0.5295081 0.1265661
vt 0.5395646 0.1213879
vt 0.5394673 0.08767486
vt 0.5312606 0.08499998
vt 1 0.1722529
vt 0.9166667 0.1722529
vt 0.8333333 0.1722529
vt 1 0.1265661
vt 0.9166667 0.1265661
vt 0.8333333 0.1265661
vt 0.9166667 0.08499998
vt 0.8333333 0.08499998
vt 1 0.2091619
vt 0.9768803 0.2021207
vt 0.9772602 0.1867368
vt 1 0.1795163
vt 1 0.09241492
vt 0.9867867 0.08499998
vt 0 0.0467695
vt 0.08333334 0.0467695
vt 0.1666667 0.0467695
vt 0.25 0.0467695
vt 0 0.01614851
vt 0.08333334 0.01614851
vt 0.1666667 0.01614851
vt 0.25 0.01614851
vt 0 0
vt 0.08333334 0
vt 0.1666667 0
vt 0.25 0
vt 0.01968045 0.07978661
vt 0.02029264 0.05743839
vt 0 0.05029742
vt 0.3333333 0.0467695
vt 0.4166667 0.0467695
vt 0.5 0.0467695
vt 0.3333333 0.01614851
vt 0.4166667 0.01614851
vt 0.5 0.01614851
vt 0.3333333 0
vt 0.4166667 0
vt 0.5 0
vt 0.5 0.07068884
vt 0.75 0.0467695
vt 0.6666666 0.0467695
vt 0.5833333 0.0467695
vt 0.75 0.01614851
vt 0.6666666 0.01614851
vt 0.5833333 0.01614851
vt 0.75 0
vt 0.6666666 0
vt 0.5833333 0
vt 1 0.0467695
vt 0.9166667 0.0467695
vt 0.8333333 0.0467695
vt 1 0.01614851
vt 0.9166667 0.01614851
vt 0.8333333 0.01614851
vt 1 0
vt 0.9166667 0
vt 0.8333333 0
vt 0.9803196 0.07978661
vt 0.9797074 0.05743839
vt 1 0.05029742
vt 0.125 0.9921875
vt 0.1835938 0.9764873
vt 0.2264874 0.9335938
vt 0.2421875 0.875
vt 0.125 0.9811395
vt 0.1780698 0.9669195
vt 0.2169195 0.9280697
vt 0.2311395 0.875
vt 0.125 0.9487847
vt 0.1618924 0.9388995
vt 0.1888995 0.9118924
vt 0.1987847 0.875
vt 0.125 0.875
vt 0.2264874 0.8164063
vt 0.1835937 0.7735127
vt 0.125 0.7578125
vt 0.2169195 0.8219302
vt 0.1780698 0.7830805
vt 0.125 0.7688605
vt 0.1888994 0.8381076
vt 0.1618924 0.8111005
vt 0.125 0.8012153
vt 0.0078125 0.875
vt 0.02351265 0.8164063
vt 0.06640626 0.7735127
vt 0.01886047 0.875
vt 0.03308047 0.8219302
vt 0.07193024 0.7830805
vt 0.05121528 0.875
vt 0.06110056 0.8381076
vt 0.08810765 0.8111005
vt 0.06640625 0.9764873
vt 0.02351263 0.9335938
vt 0.07193023 0.9669195
vt 0.03308046 0.9280697
vt 0.08810763 0.9388995
vt 0.06110054 0.9118924
vt 0.75 0.9085969
vt 0.7916667 0.9092873
vt 0.8333333 0.9102026
vt 0.875 0.9105729
vt 0.75 0.8227233
vt 0.7916667 0.8226182
vt 0.8333333 0.8227319
vt 0.875 0.8228685
vt 0.875 0.75
vt 0.75 0.9637725
vt 0.7916667 0.9767676
vt 0.8333333 0.9798875
vt 0.875 0.9737668
vt 0.75 0.969559
vt 0.7916667 0.9825541
vt 0.8333333 0.985674
vt 0.875 0.9795533
vt 1 0.9085969
vt 0.9583333 0.9092873
vt 0.9166667 0.9102026
vt 1 0.8227233
vt 0.9583333 0.8226182
vt 0.9166667 0.8227319
vt 1 0.75
vt 0.9583333 0.75
vt 0.9166667 0.75
vt 1 0.9637725
vt 0.9583333 0.9767676
vt 0.9166667 0.9798875
vt 1 0.969559
vt 0.9583333 0.9825541
vt 0.9166667 0.985674
vt 0.375 0.875
vt 0.375 0.8391007
vt 0.3929497 0.8439103
vt 0.4060897 0.8570504
vt 0.4108993 0.875
vt 0.375 0.790685
vt 0.4171575 0.8019811
vt 0.448019 0.8328425
vt 0.459315 0.875
vt 0.375 0.7578125
vt 0.4335938 0.7735127
vt 0.4764874 0.8164063
vt 0.4921875 0.875
vt 0.4060897 0.8929496
vt 0.3929497 0.9060897
vt 0.375 0.9108993
vt 0.4480189 0.9171575
vt 0.4171575 0.948019
vt 0.375 0.959315
vt 0.4764873 0.9335938
vt 0.4335938 0.9764873
vt 0.375 0.9921875
vt 0.3391007 0.875
vt 0.3439103 0.8929496
vt 0.3570503 0.9060897
vt 0.290685 0.875
vt 0.3019811 0.9171575
vt 0.3328425 0.948019
vt 0.2578125 0.875
vt 0.2735127 0.9335938
vt 0.3164063 0.9764873
vt 0.3570503 0.8439103
vt 0.3439103 0.8570504
vt 0.3328425 0.8019811
vt 0.301981 0.8328425
vt 0.3164063 0.7735127
vt 0.2735126 0.8164063
vt 0 0.5
vt 0.08333334 0.5
vt 0.1666667 0.5
vt 0.25 0.5
vt 0 0.4790072
vt 0.08333334 0.4790072
vt 0.1666667 0.4790072
vt 0.25 0.4790072
vt 0 0.4362282
vt 0.08333334 0.4362282
vt 0.1666667 0.4362282
vt 0.25 0.4362282
vt 0 0.374375
vt 0.08333334 0.374375
vt 0.1666667 0.374375
vt 0.25 0.374375
vt 0.3333333 0.5
vt 0.4166667 0.5
vt 0.5 0.5
vt 0.3333333 0.4790072
vt 0.4166667 0.4790072
vt 0.5 0.4790072
vt 0.3333333 0.4362282
vt 0.4166667 0.4362282
vt 0.5 0.4362282
vt 0.3333333 0.374375
vt 0.4166667 0.374375
vt 0.5 0.374375
vt 0.5 0.3736584
vt 0.4723852 0.3909969
vt 0.4723725 0.4169177
vt 0.5 0.4283133
vt 0.75 0.5
vt 0.6666666 0.5
vt 0.5833333 0.5
vt 0.75 0.4790072
vt 0.6666666 0.4790072
vt 0.5833333 0.4790072
vt 0.75 0.4362282
vt 0.6666666 0.4362282
vt 0.5833333 0.4362282
vt 0.75 0.374375
vt 0.6666666 0.374375
vt 0.5833333 0.374375
vt 0.5276148 0.3909969
vt 0.5276275 0.4169177
vt 1 0.5
vt 0.9166667 0.5
vt 0.8333333 0.5
vt 1 0.4790072
vt 0.9166667 0.4790072
vt 0.8333333 0.4790072
vt 1 0.4362282
vt 0.9166667 0.4362282
vt 0.8333333 0.4362282
vt 1 0.374375
vt 0.9166667 0.374375
vt 0.8333333 0.374375
vt 0 0.3124577
vt 0.08333334 0.3124577
vt 0.1666667 0.3124577
vt 0.25 0.3124577
vt 0 0.2797104
vt 0.08333334 0.2797104
vt 0.1666667 0.2797104
vt 0.25 0.2797104
vt 0 0.2664
vt 0.08333334 0.2664
vt 0.1666667 0.2664
vt 0.25 0.2664
vt 0.3333333 0.3124577
vt 0.4166667 0.3124577
vt 0.5 0.3124577
vt 0.3333333 0.2797104
vt 0.4166667 0.2797104
vt 0.5 0.2797104
vt 0.3333333 0.2664
vt 0.4166667 0.2664
vt 0.5 0.2664
vt 0.75 0.3124577
vt 0.6666666 0.3124577
vt 0.5833333 0.3124577
vt 0.75 0.2797104
vt 0.6666666 0.2797104
vt 0.5833333 0.2797104
vt 0.75 0.2664
vt 0.6666666 0.2664
vt 0.5833333 0.2664
vt 1 0.3124577
vt 0.9166667 0.3124577
vt 0.8333333 0.3124577
vt 1 0.2797104
vt 0.9166667 0.2797104
vt 0.8333333 0.2797104
vt 1 0.2664
vt 0.9166667 0.2664
vt 0.8333333 0.2664
vt 0 0.2616735
vt 0.08333334 0.2616735
vt 0.1666667 0.2616735
vt 0.25 0.2616735
vt 0 0.2560588
vt 0.08333334 0.2560588
vt 0.1666667 0.2560588
vt 0.25 0.2560588
vt 0.3333333 0.2616735
vt 0.4166667 0.2616735
vt 0.5 0.2616735
vt 0.3333333 0.2560588
vt 0.4166667 0.2560588
vt 0.5 0.2560588
vt 0.75 0.2616735
vt 0.6666666 0.2616735
vt 0.5833333 0.2616735
vt 0.75 0.2560588
vt 0.6666666 0.2560588
vt 0.5833333 0.2560588
vt 1 0.2616735
vt 0.9166667 0.2616735
vt 0.8333333 0.2616735
vt 1 0.2560588
vt 0.9166667 0.2560588
vt 0.8333333 0.2560588
vt 0.625 0.9921875
vt 0.6835938 0.9764873
vt 0.7264873 0.9335938
vt 0.7421875 0.875
vt 0.625 0.9864444
vt 0.6807222 0.9715137
vt 0.7215137 0.9307222
vt 0.7364444 0.875
vt 0.625 0.9825264
vt 0.6787632 0.9681206
vt 0.7181206 0.9287632
vt 0.7325264 0.875
vt 0.625 0.9783359
vt 0.676668 0.9644915
vt 0.7144915 0.9266679
vt 0.7283359 0.875
vt 0.7264873 0.8164063
vt 0.6835938 0.7735127
vt 0.625 0.7578125
vt 0.7215137 0.8192778
vt 0.6807222 0.7784863
vt 0.625 0.7635556
vt 0.7181206 0.8212368
vt 0.6787632 0.7818794
vt 0.625 0.7674736
vt 0.7144915 0.8233321
vt 0.6766679 0.7855085
vt 0.625 0.771664
vt 0.5078125 0.875
vt 0.5235127 0.8164063
vt 0.5664063 0.7735127
vt 0.5135556 0.875
vt 0.5284863 0.8192778
vt 0.5692778 0.7784863
vt 0.5174736 0.875
vt 0.5318794 0.8212368
vt 0.5712368 0.7818794
vt 0.5216641 0.875
vt 0.5355085 0.8233321
vt 0.5733321 0.7855085
vt 0.5664063 0.9764873
vt 0.5235127 0.9335938
vt 0.5692778 0.9715137
vt 0.5284863 0.9307222
vt 0.5712368 0.9681206
vt 0.5318794 0.9287632
vt 0.573332 0.9644915
vt 0.5355085 0.9266679
vt 0.625 0.9735249
vt 0.6742625 0.9603251
vt 0.7103251 0.9242624
vt 0.7235249 0.875
vt 0.625 0.9681149
vt 0.6715574 0.9556398
vt 0.7056398 0.9215574
vt 0.7181149 0.875
vt 0.625 0.962164
vt 0.668582 0.9504863
vt 0.7004863 0.918582
vt 0.712164 0.875
vt 0.7103251 0.8257375
vt 0.6742625 0.7896749
vt 0.625 0.7764751
vt 0.7056398 0.8284426
vt 0.6715574 0.7943602
vt 0.625 0.7818851
vt 0.7004863 0.831418
vt 0.668582 0.7995137
vt 0.625 0.787836
vt 0.5264751 0.875
vt 0.5396749 0.8257375
vt 0.5757375 0.7896749
vt 0.5318851 0.875
vt 0.5443602 0.8284426
vt 0.5784426 0.7943602
vt 0.537836 0.875
vt 0.5495137 0.831418
vt 0.581418 0.7995137
vt 0.5757375 0.9603251
vt 0.5396749 0.9242624
vt 0.5784426 0.9556398
vt 0.5443602 0.9215574
vt 0.581418 0.9504863
vt 0.5495137 0.918582
vt 0.625 0.9432744
vt 0.6591372 0.9341274
vt 0.6841274 0.9091372
vt 0.6932744 0.875
vt 0.625 0.9099818
vt 0.6424909 0.9052951
vt 0.6552951 0.8924909
vt 0.6599818 0.875
vt 0.625 0.875
vt 0.6841274 0.8408628
vt 0.6591372 0.8158726
vt 0.625 0.8067255
vt 0.6552951 0.8575091
vt 0.6424909 0.8447049
vt 0.625 0.8400182
vt 0.5567256 0.875
vt 0.5658726 0.8408628
vt 0.5908628 0.8158726
vt 0.5900182 0.875
vt 0.5947049 0.8575091
vt 0.6075091 0.8447049
vt 0.5908628 0.9341274
vt 0.5658726 0.9091372
vt 0.6075091 0.9052951
vt 0.5947049 0.8924909

f 2/2/2 1/1/1 5/5/5 6/6/6
f 3/3/3 2/2/2 6/6/6 7/7/7
f 4/4/4 3/3/3 7/7/7 8/8/8
f 6/6/6 5/5/5 9/9/9 10/10/10
f 7/7/7 6/6/6 10/10/10 11/11/11
f 8/8/8 7/7/7 11/11/11 12/12/12
f 13/13/13 2/2/2 14/14/14
f 13/13/13 1/1/1 2/2/2
f 15/15/15 14/14/14 2/2/2
f 15/15/15 2/2/2 3/3/3
f 16/16/16 15/15/15 3/3/3
f 16/16/16 3/3/3 4/4/4
f 13/13/13 14/14/14 18/18/18 17/17/17
f 14/14/14 15/15/15 19/19/19 18/18/18
f 15/15/15 16/16/16 20/20/20 19/19/19
f 5/5/5 1/1/1 21/21/21 23/24/23
f 23/24/23 21/21/21 22/22/22 24/25/24
f 24/25/24 22/22/22 4/23/4 8/26/8
f 9/9/9 5/5/5 23/24/23 25/27/25
f 25/27/25 23/24/23 24/25/24 26/28/26
f 26/28/26 24/25/24 8/26/8 12/29/12
f 21/21/21 13/13/13 27/30/27
f 1/1/1 13/13/13 21/21/21
f 27/30/27 28/31/28 21/21/21
f 21/21/21 28/31/28 22/22/22
f 28/31/28 16/32/16 22/22/22
f 22/22/22 16/32/16 4/23/4
f 29/33/29 27/30/27 13/13/13 17/17/17
f 30/34/30 28/31/28 27/30/27 29/33/29
f 20/35/20 16/32/16 28/31/28 30/34/30
f 10/10/10 9/9/9 31/36/31 32/37/32
f 11/11/11 10/10/10 32/37/32 33/38/33
f 12/12/12 11/11/11 33/38/33 34/39/34
f 32/37/32 31/36/31 35/40/35 36/41/36
f 33/38/33 32/37/32 36/41/36 37/42/37
f 34/39/34 33/38/33 37/42/37 38/43/38
f 39/44/39 37/42/37 40/45/40
f 39/44/39 38/43/38 37/42/37
f 40/45/40 37/42/37 41/46/41
f 41/46/41 36/41/36 42/47/42
f 41/46/41 37/42/37 36/41/36
f 42/47/42 35/40/35 43/48/43
f 42/47/42 36/41/36 35/40/35
f 39/44/39 40/45/40 45/50/45 44/49/44
f 40/45/40 41/46/41 46/51/46 45/50/45
f 41/46/41 42/47/42 47/52/47 46/51/46
f 42/47/42 43/48/43 48/53/48 47/52/47
f 31/36/31 9/9/9 25/27/25 49/54/49
f 49/54/49 25/27/25 26/28/26 50/55/50
f 50/55/50 26/28/26 12/29/12 34/56/34
f 35/40/35 31/36/31 49/54/49 51/57/51
f 51/57/51 49/54/49 50/55/50 52/58/52
f 52/58/52 50/55/50 34/56/34 38/59/38
f 52/58/52 39/60/39 53/61/53
f 38/59/38 39/60/39 52/58/52
f 52/58/52 53/61/53 54/62/54
f 51/57/51 54/62/54 55/63/55
f 52/58/52 54/62/54 51/57/51
f 35/40/35 55/63/55 43/48/43
f 51/57/51 55/63/55 35/40/35
f 56/65/56 53/61/53 39/60/39 44/64/44
f 57/66/57 54/62/54 53/61/53 56/65/56
f 58/67/58 55/63/55 54/62/54 57/66/57
f 48/53/48 43/48/43 55/63/55 58/67/58
f 60/69/60 59/68/59 63/72/63 64/73/64
f 61/70/61 60/69/60 64/73/64 65/74/65
f 62/71/62 61/70/61 65/74/65 66/75/66
f 64/73/64 63/72/63 67/76/67 68/77/68
f 65/74/65 64/73/64 68/77/68 69/78/69
f 66/75/66 65/74/65 69/78/69 70/79/70
f 68/77/68 67/76/67 71/80/71 72/81/72
f 69/78/69 68/77/68 72/81/72 73/82/73
f 70/79/70 69/78/69 73/82/73 74/83/74
f 63/87/63 59/84/59 75/85/75 77/88/77
f 77/88/77 75/85/75 76/86/76 78/89/78
f 78/89/78 76/86/76 62/71/62 66/75/66
f 67/90/67 63/87/63 77/88/77 79/91/79
f 79/91/79 77/88/77 78/89/78 80/92/80
f 80/92/80 78/89/78 66/75/66 70/79/70
f 71/93/71 67/90/67 79/91/79 81/94/81
f 81/94/81 79/91/79 80/92/80 82/95/82
f 82/95/82 80/92/80 70/79/70 74/83/74
f 72/81/72 71/80/71 83/96/83 84/97/84
f 73/82/73 72/81/72 84/97/84 85/98/85
f 74/83/74 73/82/73 85/98/85 86/99/86
f 84/97/84 83/96/83 87/100/87 88/101/88
f 85/98/85 84/97/84 88/101/88 89/102/89
f 86/99/86 85/98/85 89/102/89 90/103/90
f 91/104/91 92/105/92 88/101/88
f 91/104/91 88/101/88 87/100/87
f 92/105/92 93/106/93 88/101/88
f 93/106/93 94/107/94 89/102/89
f 93/106/93 89/102/89 88/101/88
f 95/108/95 89/102/89 94/107/94
f 95/108/95 90/103/90 89/102/89
f 96/109/96 90/103/90 95/108/95
f 92/105/92 91/104/91 97/110/97 98/111/98
f 93/106/93 92/105/92 98/111/98 99/112/99
f 94/107/94 93/106/93 99/112/99 100/113/100
f 95/108/95 94/107/94 100/113/100 101/114/101
f 96/109/96 95/108/95 101/114/101 102/115/102
f 83/116/83 71/93/71 81/94/81 103/117/103
f 103/117/103 81/94/81 82/95/82 104/118/104
f 104/118/104 82/95/82 74/83/74 86/99/86
f 87/119/87 83/116/83 103/117/103 105/120/105
f 105/120/105 103/117/103 104/118/104 106/121/106
f 106/121/106 104/118/104 86/99/86 90/103/90
f 107/123/107 91/122/91 105/120/105
f 105/120/105 91/122/91 87/119/87
f 108/124/108 107/123/107 105/120/105
f 109/125/109 108/124/108 106/121/106
f 106/121/106 108/124/108 105/120/105
f 106/121/106 110/126/110 109/125/109
f 90/103/90 110/126/110 106/121/106
f 90/103/90 96/109/96 110/126/110
f 97/127/97 91/122/91 107/123/107 111/128/111
f 111/128/111 107/123/107 108/124/108 112/129/112
f 112/129/112 108/124/108 109/125/109 113/130/113
f 113/130/113 109/125/109 110/126/110 114/131/114
f 114/131/114 110/126/110 96/109/96 102/115/102
f 115/132/115 116/133/116 117/134/117
f 115/132/115 117/134/117 118/135/118
f 115/132/115 118/135/118 119/136/119
f 117/134/117 116/133/116 120/137/120 121/138/121
f 118/135/118 117/134/117 121/138/121 122/139/122
f 119/136/119 118/135/118 122/139/122 123/140/123
f 121/138/121 120/137/120 124/141/124 125/142/125
f 122/139/122 121/138/121 125/142/125 126/143/126
f 123/140/123 122/139/122 126/143/126 127/144/127
f 115/132/115 119/136/119 128/145/128
f 115/132/115 128/145/128 129/146/129
f 115/132/115 129/146/129 130/147/130
f 128/145/128 119/136/119 123/140/123 131/148/131
f 129/146/129 128/145/128 131/148/131 132/149/132
f 130/147/130 129/146/129 132/149/132 133/150/133
f 131/148/131 123/140/123 127/144/127 134/151/134
f 132/149/132 131/148/131 134/151/134 135/152/135
f 133/150/133 132/149/132 135/152/135 136/153/136
f 137/154/137 115/132/115 138/155/138
f 138/155/138 115/132/115 139/156/139
f 139/156/139 115/132/115 130/147/130
f 140/157/140 137/154/137 138/155/138 141/158/141
f 141/158/141 138/155/138 139/156/139 142/159/142
f 142/159/142 139/156/139 130/147/130 133/150/133
f 143/160/143 140/157/140 141/158/141 144/161/144
f 144/161/144 141/158/141 142/159/142 145/162/145
f 145/162/145 142/159/142 133/150/133 136/153/136
f 116/133/116 115/132/115 146/163/146
f 146/163/146 115/132/115 147/164/147
f 147/164/147 115/132/115 137/154/137
f 120/137/120 116/133/116 146/163/146 148/165/148
f 148/165/148 146/163/146 147/164/147 149/166/149
f 149/166/149 147/164/147 137/154/137 140/157/140
f 124/141/124 120/137/120 148/165/148 150/167/150
f 150/167/150 148/165/148 149/166/149 151/168/151
f 151/168/151 149/166/149 140/157/140 143/160/143
f 125/170/125 124/169/124 152/173/152 153/174/153
f 126/171/126 125/170/125 153/174/153 154/175/154
f 127/172/127 126/171/126 154/175/154 155/176/155
f 153/174/153 152/173/152 156/177/156 157/178/157
f 154/175/154 153/174/153 157/178/157 158/179/158
f 155/176/155 154/175/154 158/179/158 159/180/159
f 157/178/157 156/177/156 160/181/160 161/182/161
f 158/179/158 157/178/157 161/182/161 162/183/162
f 159/180/159 158/179/158 162/183/162 163/184/163
f 134/185/134 127/172/127 155/176/155 164/188/164
f 135/186/135 134/185/134 164/188/164 165/189/165
f 136/187/136 135/186/135 165/189/165 166/190/166
f 164/188/164 155/176/155 159/180/159 167/191/167
f 165/189/165 164/188/164 167/191/167 168/192/168
f 166/190/166 165/189/165 168/192/168 169/193/169
f 167/191/167 159/180/159 163/184/163 170/194/170
f 168/192/168 167/191/167 170/194/170 171/195/171
f 169/193/169 168/192/168 171/195/171 172/196/172
f 173/200/173 143/197/143 144/198/144 174/201/174
f 174/201/174 144/198/144 145/199/145 175/202/175
f 175/202/175 145/199/145 136/187/136 166/190/166
f 176/203/176 173/200/173 174/201/174 177/204/177
f 177/204/177 174/201/174 175/202/175 178/205/178
f 178/205/178 175/202/175 166/190/166 169/193/169
f 179/206/179 176/203/176 177/204/177 180/207/180
f 180/207/180 177/204/177 178/205/178 181/208/181
f 181/208/181 178/205/178 169/193/169 172/196/172
f 152/173/152 124/169/124 150/209/150 182/211/182
f 182/211/182 150/209/150 151/210/151 183/212/183
f 183/212/183 151/210/151 143/197/143 173/200/173
f 156/177/156 152/173/152 182/211/182 184/213/184
f 184/213/184 182/211/182 183/212/183 185/214/185
f 185/214/185 183/212/183 173/200/173 176/203/176
f 160/181/160 156/177/156 184/213/184 186/215/186
f 186/215/186 184/213/184 185/214/185 187/216/187
f 187/216/187 185/214/185 176/203/176 179/206/179
f 189/218/189 188/217/188 192/221/192 193/222/193
f 190/219/190 189/218/189 193/222/193 194/223/194
f 191/220/191 190/219/190 194/223/194 195/224/195
f 193/222/193 192/221/192 196/225/196 197/226/197
f 194/223/194 193/222/193 197/226/197 198/227/198
f 195/224/195 194/223/194 198/227/198 199/228/199
f 197/226/197 196/225/196 200/229/200 201/230/201
f 198/227/198 197/226/197 201/230/201 202/231/202
f 199/228/199 198/227/198 202/231/202 203/232/203
f 204/233/204 191/220/191 195/224/195 207/236/207
f 205/234/205 204/233/204 207/236/207 208/237/208
f 206/235/206 205/234/205 208/237/208 209/238/209
f 207/236/207 195/224/195 199/228/199 210/239/210
f 208/237/208 207/236/207 210/239/210 211/240/211
f 209/238/209 208/237/208 211/240/211 212/241/212
f 210/239/210 199/228/199 203/232/203 213/242/213
f 211/240/211 210/239/210 213/242/213 214/243/214
f 212/241/212 211/240/211 214/243/214 215/244/215
f 219/248/219 216/245/216 217/246/217 220/249/220
f 220/249/220 217/246/217 218/247/218 221/250/221
f 221/250/221 218/247/218 206/235/206 209/238/209
f 222/251/222 219/248/219 220/249/220 223/252/223
f 223/252/223 220/249/220 221/250/221 224/253/224
f 224/253/224 221/250/221 209/238/209 212/241/212
f 225/254/225 222/251/222 223/252/223 226/255/226
f 226/255/226 223/252/223 224/253/224 227/256/227
f 227/256/227 224/253/224 212/241/212 215/244/215
f 192/260/192 188/257/188 228/258/228 230/261/230
f 230/261/230 228/258/228 229/259/229 231/262/231
f 231/262/231 229/259/229 216/245/216 219/248/219
f 196/263/196 192/260/192 230/261/230 232/264/232
f 232/264/232 230/261/230 231/262/231 233/265/233
f 233/265/233 231/262/231 219/248/219 222/251/222
f 200/266/200 196/263/196 232/264/232 234/267/234
f 234/267/234 232/264/232 233/265/233 235/268/235
f 235/268/235 233/265/233 222/251/222 225/254/225
f 202/231/202 201/230/201 237/270/237 238/271/238
f 203/232/203 202/231/202 238/271/238 239/272/239
f 237/270/237 236/269/236 240/273/240 241/274/241
f 238/271/238 237/270/237 241/274/241 242/275/242
f 239/272/239 238/271/238 242/275/242 243/276/243
f 242/275/242 241/274/241 244/277/244 245/278/245
f 243/276/243 242/275/242 245/278/245 246/279/246
f 18/281/18 200/229/200 17/280/17
f 18/281/18 201/230/201 200/229/200
f 18/281/18 19/282/19 237/270/237
f 18/281/18 237/270/237 201/230/201
f 19/282/19 20/283/20 236/269/236
f 19/282/19 236/269/236 237/270/237
f 45/285/45 240/273/240 44/284/44
f 45/285/45 241/274/241 240/273/240
f 45/285/45 244/277/244 241/274/241
f 213/242/213 203/232/203 239/272/239 247/286/247
f 214/243/214 213/242/213 247/286/247 248/287/248
f 215/244/215 214/243/214 248/287/248 249/288/249
f 247/286/247 239/272/239 243/276/243 250/289/250
f 248/287/248 247/286/247 250/289/250 251/290/251
f 250/289/250 243/276/243 246/279/246 252/291/252
f 251/290/251 250/289/250 252/291/252 253/292/253
f 98/294/98 97/293/97 249/288/249
f 98/294/98 249/288/249 248/287/248
f 98/294/98 248/287/248 251/290/251
f 99/295/99 98/294/98 251/290/251
f 99/295/99 253/292/253 100/296/100
f 99/295/99 251/290/251 253/292/253
f 100/296/100 253/292/253 101/297/101
f 254/298/254 225/254/225 226/255/226 255/299/255
f 255/299/255 226/255/226 227/256/227 256/300/256
f 256/300/256 227/256/227 215/244/215 249/288/249
f 257/301/257 254/298/254 255/299/255 258/302/258
f 258/302/258 255/299/255 256/300/256 259/303/259
f 260/304/260 257/301/257 258/302/258 261/305/261
f 261/305/261 258/302/258 259/303/259 262/306/262
f 97/293/97 111/307/111 249/288/249
f 249/288/249 111/307/111 256/300/256
f 256/300/256 111/307/111 259/303/259
f 111/307/111 112/308/112 259/303/259
f 262/306/262 112/308/112 113/309/113
f 259/303/259 112/308/112 262/306/262
f 262/306/262 113/309/113 114/310/114
f 263/312/263 234/267/234 235/268/235 264/313/264
f 264/313/264 235/268/235 225/254/225 254/298/254
f 240/314/240 236/311/236 263/312/263 265/315/265
f 265/315/265 263/312/263 264/313/264 266/316/266
f 266/316/266 264/313/264 254/298/254 257/301/257
f 267/317/267 265/315/265 266/316/266 268/318/268
f 268/318/268 266/316/266 257/301/257 260/304/260
f 200/266/200 29/320/29 17/319/17
f 234/267/234 29/320/29 200/266/200
f 30/321/30 29/320/29 263/312/263
f 263/312/263 29/320/29 234/267/234
f 20/322/20 30/321/30 236/311/236
f 236/311/236 30/321/30 263/312/263
f 240/314/240 56/324/56 44/323/44
f 265/315/265 56/324/56 240/314/240
f 267/317/267 56/324/56 265/315/265
f 245/278/245 244/277/244 270/326/270 271/327/271
f 246/279/246 245/278/245 271/327/271 272/328/272
f 270/326/270 269/325/269 273/329/273 274/330/274
f 271/327/271 270/326/270 274/330/274 275/331/275
f 272/328/272 271/327/271 275/331/275 276/332/276
f 274/330/274 273/329/273 277/333/277 278/334/278
f 275/331/275 274/330/274 278/334/278 279/335/279
f 276/332/276 275/331/275 279/335/279 280/336/280
f 46/337/46 244/277/244 45/285/45
f 46/337/46 270/326/270 244/277/244
f 47/338/47 270/326/270 46/337/46
f 47/338/47 48/339/48 269/325/269
f 47/338/47 269/325/269 270/326/270
f 252/291/252 246/279/246 272/328/272 281/340/281
f 253/292/253 252/291/252 281/340/281 282/341/282
f 281/340/281 272/328/272 276/332/276 284/343/284
f 282/341/282 281/340/281 284/343/284 285/344/285
f 283/342/283 282/341/282 285/344/285 286/345/286
f 284/343/284 276/332/276 280/336/280 287/346/287
f 285/344/285 284/343/284 287/346/287 288/347/288
f 286/345/286 285/344/285 288/347/288 289/348/289
f 101/297/101 283/342/283 102/349/102
f 101/297/101 282/341/282 283/342/283
f 101/297/101 253/292/253 282/341/282
f 290/350/290 260/304/260 261/305/261 291/351/291
f 291/351/291 261/305/261 262/306/262 292/352/292
f 293/353/293 290/350/290 291/351/291 294/354/294
f 294/354/294 291/351/291 292/352/292 295/355/295
f 295/355/295 292/352/292 283/342/283 286/345/286
f 296/356/296 293/353/293 294/354/294 297/357/297
f 297/357/297 294/354/294 295/355/295 298/358/298
f 298/358/298 295/355/295 286/345/286 289/348/289
f 283/342/283 114/310/114 102/349/102
f 292/352/292 114/310/114 283/342/283
f 262/306/262 114/310/114 292/352/292
f 299/360/299 267/317/267 268/318/268 300/361/300
f 300/361/300 268/318/268 260/304/260 290/350/290
f 273/362/273 269/359/269 299/360/299 301/363/301
f 301/363/301 299/360/299 300/361/300 302/364/302
f 302/364/302 300/361/300 290/350/290 293/353/293
f 277/365/277 273/362/273 301/363/301 303/366/303
f 303/366/303 301/363/301 302/364/302 304/367/304
f 304/367/304 302/364/302 293/353/293 296/356/296
f 267/317/267 57/368/57 56/324/56
f 299/360/299 57/368/57 267/317/267
f 299/360/299 58/369/58 57/368/57
f 48/370/48 58/369/58 269/359/269
f 269/359/269 58/369/58 299/360/299
f 278/372/278 277/371/277 305/375/305 306/376/306
f 279/373/279 278/372/278 306/376/306 307/377/307
f 280/374/280 279/373/279 307/377/307 308/378/308
f 306/376/306 305/375/305 309/379/309 310/380/310
f 307/377/307 306/376/306 310/380/310 311/381/311
f 308/378/308 307/377/307 311/381/311 312/382/312
f 310/380/310 309/379/309 313/383/313
f 311/381/311 310/380/310 313/383/313
f 312/382/312 311/381/311 313/383/313
f 287/384/287 280/374/280 308/378/308 314/387/314
f 288/385/288 287/384/287 314/387/314 315/388/315
f 289/386/289 288/385/288 315/388/315 316/389/316
f 314/387/314 308/378/308 312/382/312 317/390/317
f 315/388/315 314/387/314 317/390/317 318/391/318
f 316/389/316 315/388/315 318/391/318 319/392/319
f 317/390/317 312/382/312 313/383/313
f 318/391/318 317/390/317 313/383/313
f 319/392/319 318/391/318 313/383/313
f 320/396/320 296/393/296 297/394/297 321/397/321
f 321/397/321 297/394/297 298/395/298 322/398/322
f 322/398/322 298/395/298 289/386/289 316/389/316
f 323/399/323 320/396/320 321/397/321 324/400/324
f 324/400/324 321/397/321 322/398/322 325/401/325
f 325/401/325 322/398/322 316/389/316 319/392/319
f 323/399/323 324/400/324 313/383/313
f 324/400/324 325/401/325 313/383/313
f 325/401/325 319/392/319 313/383/313
f 305/375/305 277/371/277 303/402/303 326/404/326
f 326/404/326 303/402/303 304/403/304 327/405/327
f 327/405/327 304/403/304 296/393/296 320/396/320
f 309/379/309 305/375/305 326/404/326 328/406/328
f 328/406/328 326/404/326 327/405/327 329/407/329
f 329/407/329 327/405/327 320/396/320 323/399/323
f 309/379/309 328/406/328 313/383/313
f 328/406/328 329/407/329 313/383/313
f 329/407/329 323/399/323 313/383/313
f 331/409/331 330/408/330 334/412/334 335/413/335
f 332/410/332 331/409/331 335/413/335 336/414/336
f 333/411/333 332/410/332 336/414/336 337/415/337
f 335/413/335 334/412/334 59/68/59 60/69/60
f 336/414/336 335/413/335 60/69/60 61/70/61
f 337/415/337 336/414/336 61/70/61 62/71/62
f 340/417/340 331/409/331 341/418/341
f 340/417/340 330/408/330 331/409/331
f 341/418/341 332/410/332 342/419/342
f 341/418/341 331/409/331 332/410/332
f 343/420/343 342/419/342 332/410/332
f 343/420/343 332/410/332 333/411/333
f 340/417/340 341/418/341 345/422/345 344/421/344
f 341/418/341 342/419/342 346/423/346 345/422/345
f 342/419/342 343/420/343 347/424/347 346/423/346
f 334/428/334 330/425/330 348/426/348 350/429/350
f 350/429/350 348/426/348 349/427/349 351/430/351
f 351/430/351 349/427/349 333/411/333 337/415/337
f 338/431/338 334/428/334 350/429/350 352/432/352
f 352/432/352 350/429/350 351/430/351 353/433/353
f 353/433/353 351/430/351 337/415/337 339/416/339
f 348/426/348 340/434/340 354/435/354
f 330/425/330 340/434/340 348/426/348
f 349/427/349 354/435/354 355/436/355
f 348/426/348 354/435/354 349/427/349
f 355/436/355 343/420/343 349/427/349
f 349/427/349 343/420/343 333/411/333
f 356/438/356 354/435/354 340/434/340 344/437/344
f 357/439/357 355/436/355 354/435/354 356/438/356
f 347/424/347 343/420/343 355/436/355 357/439/357
f 358/440/358 359/441/359 360/442/360
f 358/440/358 360/442/360 361/443/361
f 358/440/358 361/443/361 362/444/362
f 360/442/360 359/441/359 363/445/363 364/446/364
f 361/443/361 360/442/360 364/446/364 365/447/365
f 362/444/362 361/443/361 365/447/365 366/448/366
f 364/446/364 363/445/363 367/449/367 368/450/368
f 365/447/365 364/446/364 368/450/368 369/451/369
f 366/448/366 365/447/365 369/451/369 370/452/370
f 358/440/358 362/444/362 371/453/371
f 358/440/358 371/453/371 372/454/372
f 358/440/358 372/454/372 373/455/373
f 371/453/371 362/444/362 366/448/366 374/456/374
f 372/454/372 371/453/371 374/456/374 375/457/375
f 373/455/373 372/454/372 375/457/375 376/458/376
f 374/456/374 366/448/366 370/452/370 377/459/377
f 375/457/375 374/456/374 377/459/377 378/460/378
f 376/458/376 375/457/375 378/460/378 379/461/379
f 380/462/380 358/440/358 381/463/381
f 381/463/381 358/440/358 382/464/382
f 382/464/382 358/440/358 373/455/373
f 383/465/383 380/462/380 381/463/381 384/466/384
f 384/466/384 381/463/381 382/464/382 385/467/385
f 385/467/385 382/464/382 373/455/373 376/458/376
f 386/468/386 383/465/383 384/466/384 387/469/387
f 387/469/387 384/466/384 385/467/385 388/470/388
f 388/470/388 385/467/385 376/458/376 379/461/379
f 359/441/359 358/440/358 389/471/389
f 389/471/389 358/440/358 390/472/390
f 390/472/390 358/440/358 380/462/380
f 363/445/363 359/441/359 389/471/389 391/473/391
f 391/473/391 389/471/389 390/472/390 392/474/392
f 392/474/392 390/472/390 380/462/380 383/465/383
f 367/449/367 363/445/363 391/473/391 393/475/393
f 393/475/393 391/473/391 392/474/392 394/476/394
f 394/476/394 392/474/392 383/465/383 386/468/386
f 368/478/368 367/477/367 395/481/395 396/482/396
f 369/479/369 368/478/368 396/482/396 397/483/397
f 370/480/370 369/479/369 397/483/397 398/484/398
f 396/482/396 395/481/395 399/485/399 400/486/400
f 397/483/397 396/482/396 400/486/400 401/487/401
f 398/484/398 397/483/397 401/487/401 402/488/402
f 400/486/400 399/485/399 403/489/403 404/490/404
f 401/487/401 400/486/400 404/490/404 405/491/405
f 402/488/402 401/487/401 405/491/405 406/492/406
f 377/493/377 370/480/370 398/484/398 407/496/407
f 378/494/378 377/493/377 407/496/407 408/497/408
f 379/495/379 378/494/378 408/497/408 409/498/409
f 407/496/407 398/484/398 402/488/402 410/499/410
f 408/497/408 407/496/407 410/499/410 411/500/411
f 409/498/409 408/497/408 411/500/411 412/501/412
f 410/499/410 402/488/402 406/492/406 413/502/413
f 411/500/411 410/499/410 413/502/413 414/503/414
f 344/505/344 345/506/345 414/503/414
f 344/505/344 414/503/414 415/504/415
f 346/507/346 414/503/414 345/506/345
f 346/507/346 411/500/411 414/503/414
f 346/507/346 347/508/347 412/501/412
f 346/507/346 412/501/412 411/500/411
f 416/512/416 386/509/386 387/510/387 417/513/417
f 417/513/417 387/510/387 388/511/388 418/514/418
f 418/514/418 388/511/388 379/495/379 409/498/409
f 419/515/419 416/512/416 417/513/417 420/516/420
f 420/516/420 417/513/417 418/514/418 421/517/421
f 421/517/421 418/514/418 409/498/409 412/501/412
f 422/518/422 419/515/419 420/516/420 423/519/423
f 423/519/423 420/516/420 421/517/421 424/520/424
f 356/521/356 344/505/344 424/520/424
f 424/520/424 344/505/344 415/504/415
f 424/520/424 357/522/357 356/521/356
f 421/517/421 357/522/357 424/520/424
f 347/508/347 357/522/357 412/501/412
f 412/501/412 357/522/357 421/517/421
f 395/526/395 367/523/367 393/524/393 425/527/425
f 425/527/425 393/524/393 394/525/394 426/528/426
f 426/528/426 394/525/394 386/509/386 416/512/416
f 399/529/399 395/526/395 425/527/425 427/530/427
f 427/530/427 425/527/425 426/528/426 428/531/428
f 428/531/428 426/528/426 416/512/416 419/515/419
f 403/532/403 399/529/399 427/530/427 429/533/429
f 429/533/429 427/530/427 428/531/428 430/534/430
f 430/534/430 428/531/428 419/515/419 422/518/422
f 404/490/404 403/489/403 431/535/431 432/536/432
f 405/491/405 404/490/404 432/536/432 433/537/433
f 406/492/406 405/491/405 433/537/433 434/538/434
f 432/536/432 431/535/431 435/539/435 436/540/436
f 433/537/433 432/536/432 436/540/436 437/541/437
f 434/538/434 433/537/433 437/541/437 438/542/438
f 436/540/436 435/539/435 439/543/439 440/544/440
f 437/541/437 436/540/436 440/544/440 441/545/441
f 438/542/438 437/541/437 441/545/441 442/546/442
f 413/502/413 406/492/406 434/538/434 443/547/443
f 414/503/414 413/502/413 443/547/443 444/548/444
f 415/504/415 414/503/414 444/548/444 445/549/445
f 443/547/443 434/538/434 438/542/438 446/550/446
f 444/548/444 443/547/443 446/550/446 447/551/447
f 445/549/445 444/548/444 447/551/447 448/552/448
f 446/550/446 438/542/438 442/546/442 449/553/449
f 447/551/447 446/550/446 449/553/449 450/554/450
f 448/552/448 447/551/447 450/554/450 451/555/451
f 452/556/452 422/518/422 423/519/423 453/557/453
f 453/557/453 423/519/423 424/520/424 454/558/454
f 454/558/454 424/520/424 415/504/415 445/549/445
f 455/559/455 452/556/452 453/557/453 456/560/456
f 456/560/456 453/557/453 454/558/454 457/561/457
f 457/561/457 454/558/454 445/549/445 448/552/448
f 458/562/458 455/559/455 456/560/456 459/563/459
f 459/563/459 456/560/456 457/561/457 460/564/460
f 460/564/460 457/561/457 448/552/448 451/555/451
f 431/565/431 403/532/403 429/533/429 461/566/461
f 461/566/461 429/533/429 430/534/430 462/567/462
f 462/567/462 430/534/430 422/518/422 452/556/452
f 435/568/435 431/565/431 461/566/461 463/569/463
f 463/569/463 461/566/461 462/567/462 464/570/464
f 464/570/464 462/567/462 452/556/452 455/559/455
f 439/571/439 435/568/435 463/569/463 465/572/465
f 465/572/465 463/569/463 464/570/464 466/573/466
f 466/573/466 464/570/464 455/559/455 458/562/458
f 440/544/440 439/543/439 467/574/467 468/575/468
f 441/545/441 440/544/440 468/575/468 469/576/469
f 442/546/442 441/545/441 469/576/469 470/577/470
f 468/575/468 467/574/467 471/578/471 472/579/472
f 469/576/469 468/575/468 472/579/472 473/580/473
f 470/577/470 469/576/469 473/580/473 474/581/474
f 472/579/472 471/578/471 188/217/475 189/218/476
f 473/580/473 472/579/472 189/218/476 190/219/477
f 474/581/474 473/580/473 190/219/477 191/220/478
f 449/553/449 442/546/442 470/577/470 475/582/479
f 450/554/450 449/553/449 475/582/479 476/583/480
f 451/555/451 450/554/450 476/583/480 477/584/481
f 475/582/479 470/577/470 474/581/474 478/585/482
f 476/583/480 475/582/479 478/585/482 479/586/483
f 477/584/481 476/583/480 479/586/483 480/587/484
f 478/585/482 474/581/474 191/220/478 204/233/485
f 479/586/483 478/585/482 204/233/485 205/234/486
f 480/587/484 479/586/483 205/234/486 206/235/487
f 481/588/488 458/562/458 459/563/459 482/589/489
f 482/589/489 459/563/459 460/564/460 483/590/490
f 483/590/490 460/564/460 451/555/451 477/584/481
f 484/591/491 481/588/488 482/589/489 485/592/492
f 485/592/492 482/589/489 483/590/490 486/593/493
f 486/593/493 483/590/490 477/584/481 480/587/484
f 216/245/494 484/591/491 485/592/492 217/246/495
f 217/246/495 485/592/492 486/593/493 218/247/496
f 218/247/496 486/593/493 480/587/484 206/235/487
f 467/594/467 439/571/439 465/572/465 487/595/497
f 487/595/497 465/572/465 466/573/466 488/596/498
f 488/596/498 466/573/466 458/562/458 481/588/488
f 471/597/471 467/594/467 487/595/497 489/598/499
f 489/598/499 487/595/497 488/596/498 490/599/500
f 490/599/500 488/596/498 481/588/488 484/591/491
f 188/257/475 471/597/471 489/598/499 228/258/501
f 228/258/501 489/598/499 490/599/500 229/259/502
f 229/259/502 490/599/500 484/591/491 216/245/494
f 161/601/504 160/600/503 491/604/507 492/605/508
f 162/602/505 161/601/504 492/605/508 493/606/509
f 163/603/506 162/602/505 493/606/509 494/607/510
f 492/605/508 491/604/507 495/608/511 496/609/512
f 493/606/509 492/605/508 496/609/512 497/610/513
f 494/607/510 493/606/509 497/610/513 498/611/514
f 496/609/512 495/608/511 499/612/515 500/613/516
f 497/610/513 496/609/512 500/613/516 501/614/517
f 498/611/514 497/610/513 501/614/517 502/615/518
f 170/616/519 163/603/506 494/607/510 503/619/522
f 171/617/520 170/616/519 503/619/522 504/620/523
f 172/618/521 171/617/520 504/620/523 505/621/524
f 503/619/522 494/607/510 498/611/514 506/622/525
f 504/620/523 503/619/522 506/622/525 507/623/526
f 505/621/524 504/620/523 507/623/526 508/624/527
f 506/622/525 498/611/514 502/615/518 509/625/528
f 507/623/526 506/622/525 509/625/528 510/626/529
f 508/624/527 507/623/526 510/626/529 511/627/530
f 512/631/534 179/628/531 180/629/532 513/632/535
f 513/632/535 180/629/532 181/630/533 514/633/536
f 514/633/536 181/630/533 172/618/521 505/621/524
f 515/634/537 512/631/534 513/632/535 516/635/538
f 516/635/538 513/632/535 514/633/536 517/636/539
f 517/636/539 514/633/536 505/621/524 508/624/527
f 518/637/540 515/634/537 516/635/538 519/638/541
f 519/638/541 516/635/538 517/636/539 520/639/542
f 520/639/542 517/636/539 508/624/527 511/627/530
f 491/604/507 160/600/503 186/640/543 521/642/545
f 521/642/545 186/640/543 187/641/544 522/643/546
f 522/643/546 187/641/544 179/628/531 512/631/534
f 495/608/511 491/604/507 521/642/545 523/644/547
f 523/644/547 521/642/545 522/643/546 524/645/548
f 524/645/548 522/643/546 512/631/534 515/634/537
f 499/612/515 495/608/511 523/644/547 525/646/549
f 525/646/549 523/644/547 524/645/548 526/647/550
f 526/647/550 524/645/548 515/634/537 518/637/540
f 500/613/516 499/612/515 527/648/551 528/649/552
f 501/614/517 500/613/516 528/649/552 529/650/553
f 502/615/518 501/614/517 529/650/553 530/651/554
f 528/649/552 527/648/551 531/652/555 532/653/556
f 529/650/553 528/649/552 532/653/556 533/654/557
f 530/651/554 529/650/553 533/654/557 534/655/558
f 532/653/556 531/652/555 535/656/559 536/657/560
f 533/654/557 532/653/556 536/657/560 537/658/561
f 534/655/558 533/654/557 537/658/561 538/659/562
f 509/625/528 502/615/518 530/651/554 539/660/563
f 510/626/529 509/625/528 539/660/563 540/661/564
f 511/627/530 510/626/529 540/661/564 541/662/565
f 539/660/563 530/651/554 534/655/558 542/663/566
f 540/661/564 539/660/563 542/663/566 543/664/567
f 541/662/565 540/661/564 543/664/567 544/665/568
f 542/663/566 534/655/558 538/659/562 545/666/569
f 543/664/567 542/663/566 545/666/569 546/667/570
f 544/665/568 543/664/567 546/667/570 547/668/571
f 548/669/572 518/637/540 519/638/541 549/670/573
f 549/670/573 519/638/541 520/639/542 550/671/574
f 550/671/574 520/639/542 511/627/530 541/662/565
f 551/672/575 548/669/572 549/670/573 552/673/576
f 552/673/576 549/670/573 550/671/574 553/674/577
f 553/674/577 550/671/574 541/662/565 544/665/568
f 554/675/578 551/672/575 552/673/576 555/676/579
f 555/676/579 552/673/576 553/674/577 556/677/580
f 556/677/580 553/674/577 544/665/568 547/668/571
f 527/648/551 499/612/515 525/646/549 557/678/581
f 557/678/581 525/646/549 526/647/550 558/679/582
f 558/679/582 526/647/550 518/637/540 548/669/572
f 531/652/555 527/648/551 557/678/581 559/680/583
f 559/680/583 557/678/581 558/679/582 560/681/584
f 560/681/584 558/679/582 548/669/572 551/672/575
f 535/656/559 531/652/555 559/680/583 561/682/585
f 561/682/585 559/680/583 560/681/584 562/683/586
f 562/683/586 560/681/584 551/672/575 554/675/578
f 536/657/560 535/656/559 563/684/587 564/685/588
f 537/658/561 536/657/560 564/685/588 565/686/589
f 538/659/562 537/658/561 565/686/589 566/687/590
f 564/685/588 563/684/587 567/688/591 568/689/592
f 565/686/589 564/685/588 568/689/592 569/690/593
f 566/687/590 565/686/589 569/690/593 570/691/594
f 568/689/592 567/688/591 571/692/595
f 569/690/593 568/689/592 571/692/595
f 570/691/594 569/690/593 571/692/595
f 545/666/569 538/659/562 566/687/590 572/693/596
f 546/667/570 545/666/569 572/693/596 573/694/597
f 547/668/571 546/667/570 573/694/597 574/695/598
f 572/693/596 566/687/590 570/691/594 575/696/599
f 573/694/597 572/693/596 575/696/599 576/697/600
f 574/695/598 573/694/597 576/697/600 577/698/601
f 575/696/599 570/691/594 571/692/595
f 576/697/600 575/696/599 571/692/595
f 577/698/601 576/697/600 571/692/595
f 578/699/602 554/675/578 555/676/579 579/700/603
f 579/700/603 555/676/579 556/677/580 580/701/604
f 580/701/604 556/677/580 547/668/571 574/695/598
f 581/702/605 578/699/602 579/700/603 582/703/606
f 582/703/606 579/700/603 580/701/604 583/704/607
f 583/704/607 580/701/604 574/695/598 577/698/601
f 581/702/605 582/703/606 571/692/595
f 582/703/606 583/704/607 571/692/595
f 583/704/607 577/698/601 571/692/595
f 563/684/587 535/656/559 561/682/585 584/705/608
f 584/705/608 561/682/585 562/683/586 585/706/609
f 585/706/609 562/683/586 554/675/578 578/699/602
f 567/688/591 563/684/587 584/705/608 586/707/610
f 586/707/610 584/705/608 585/706/609 587/708/611
f 587/708/611 585/706/609 578/699/602 581/702/605
f 567/688/591 586/707/610 571/692/595
f 586/707/610 587/708/611 571/692/595
f 587/708/611 581/702/605 571/692/595
